<?xml version="1.0" encoding="utf-8"?>
<!-- Generator: Adobe Illustrator 25.0.0, SVG Export Plug-In . SVG Version: 6.00 Build 0)  -->
<svg version="1.1" id="Camada_1" xmlns="http://www.w3.org/2000/svg" xmlns:xlink="http://www.w3.org/1999/xlink" x="0px" y="0px"
	 viewBox="0 0 200 100" style="enable-background:new 0 0 200 100;" xml:space="preserve">
<style type="text/css">
	.st0{display:none;}
	.st1{display:inline;fill:#3F0D0C;}
	.st2{display:inline;fill:#D9B061;}
	.st3{display:inline;fill:#370B0A;}
	.st4{fill:#FFFFFF;}
	.st5{fill:#B3B3B3;}
	.st6{fill:#370B0A;}
	.st7{fill:#290808;}
	.st8{fill:#D9B061;}
	.st9{fill:#B59351;}
	.st10{fill:#3F0D0C;}
</style>
<g class="st0">
	<rect class="st2" width="200" height="100"/>
</g>
<g>
	<g>
		<path class="st10" d="M51.51,61.74c0,1.29-0.9,4-4.65,4c-0.03,0-4.2,0-4.2,0l0.39-2.38h0.4c0.44,1.58,1.97,1.84,3.29,1.84
			c1.4-0.05,2.58-0.64,2.89-1.87c0.23-0.9-0.14-1.64-0.39-1.92c-0.27-0.32-0.7-0.62-1.3-0.88c-0.78-0.34-1.49-0.61-2.12-0.8
			c-0.8-0.29-1.39-0.52-1.77-0.68c-1.62-0.8-2.42-2.08-2.39-3.78c0.04-1.12,0.43-1.75,1.16-2.49c0.69-0.63,1.82-1.08,3.63-1.08h3.28
			l0.36,2.05l-0.4,0.01c-0.82-0.86-3.01-2.31-4.87-1.29c-1.39,0.77-1.73,2.78-0.78,3.69c0.62,0.6,1.17,0.74,2.57,1.27
			C47.86,57.85,51.51,59.09,51.51,61.74z"/>
		<path class="st10" d="M76.59,60.98c-0.26,0.8-1.58,4.82-6.47,4.82c-1.86,0-3.45-0.69-4.74-2.05c-1.27-1.35-1.92-3.56-1.92-5.55
			c0-2.79,1.78-6.86,6.12-6.86c5.54,0,6.08,5.93,6.08,7.08h-9.6c0,2.92,0.96,6.95,4.18,6.95c2.65,0,3.65-2.27,4.09-3.97
			c0.14-0.53,0.69-0.84,1.22-0.7L76.59,60.98z M66.08,57.91h6.97c0-2.56-0.64-6.29-3.72-6.13C66.88,51.91,66.08,54.99,66.08,57.91z"
			/>
		<path class="st10" d="M98.95,51.69l-5.79,14.04h-0.45l-5.88-14.04h2.83l4.32,10.64l4.45-10.64H98.95z"/>
		<path class="st10" d="M123.13,60.98c-0.26,0.8-1.58,4.82-6.47,4.82c-1.86,0-3.45-0.69-4.74-2.05c-1.27-1.35-1.92-3.56-1.92-5.55
			c0-2.79,1.78-6.86,6.12-6.86c5.54,0,6.08,5.93,6.08,7.08h-9.6c0,2.92,0.96,6.95,4.18,6.95c2.65,0,3.65-2.27,4.09-3.97
			c0.14-0.53,0.69-0.84,1.22-0.7L123.13,60.98z M112.62,57.91h6.97c0-2.56-0.64-6.29-3.72-6.13
			C113.42,51.91,112.62,54.99,112.62,57.91z"/>
		<path class="st10" d="M147.27,65.74h-0.49c-1.21,0-2.19-0.98-2.19-2.19v-7.99c0-1.39-1.07-3.23-3.14-3.23
			c-1.85,0-3.2,2.37-3.2,3.23l0.01,10.18h-2.63V51.69h1.07c0.85,0,1.54,0.68,1.55,1.53l0,0.22c0.67-0.79,2.1-1.97,3.98-1.97
			c3.75,0,5.04,2.7,5.04,4.43L147.27,65.74z"/>
		<path class="st10" d="M60.5,70.96L54.71,85h-0.45l-3.41-8.14l-3.38,8.19h-0.45l-5.88-14.04h2.83l4.32,10.64l2.28-5.45l-2.2-5.24
			h2.83l0.77,1.89l0.77-1.84h0.52l-1.02,2.48l3.29,8.11l4.45-10.64H60.5z"/>
		<path class="st10" d="M76.03,77.81c0,2.04-0.69,3.8-2.04,5.22c-1.35,1.42-2.98,2.13-4.84,2.13c-1.86,0-3.46-0.69-4.74-2.05
			c-1.27-1.35-1.92-3.05-1.92-5.04c0-2.05,0.65-3.8,1.94-5.22c1.28-1.42,2.95-2.15,4.96-2.15c2,0.01,3.61,0.67,4.78,1.95
			C75.34,73.94,75.97,75.68,76.03,77.81z M73.43,77.92c0-1.23-0.19-2.37-0.55-3.39c-0.37-1.02-0.87-1.84-1.49-2.45
			c-0.5-0.49-1.05-0.79-1.65-0.9c-0.16-0.03-0.33-0.04-0.5-0.04c-0.79,0-1.51,0.32-2.15,0.94c-0.62,0.61-1.12,1.43-1.49,2.46
			c-0.36,1.02-0.55,2.15-0.55,3.39c0,1.24,0.19,2.38,0.55,3.4c0.37,1.02,0.87,1.84,1.49,2.46c0.5,0.49,1.05,0.79,1.65,0.9
			c0.16,0.03,0.33,0.04,0.5,0.04c0.79,0,1.51-0.31,2.15-0.94c0.62-0.61,1.12-1.43,1.49-2.45C73.25,80.3,73.43,79.16,73.43,77.92z"/>
		<path class="st10" d="M91.52,85.05h-0.5c-1.21,0-2.19-0.98-2.19-2.19v-7.99c0-1.39-1.07-3.23-3.14-3.23c-1.85,0-3.2,2.37-3.2,3.23
			l0.01,10.18h-2.63V71.01h1.07c0.85,0,1.54,0.68,1.55,1.53l0,0.22c0.67-0.79,2.1-1.97,3.98-1.97c3.75,0,5.05,2.7,5.05,4.43
			L91.52,85.05z"/>
		<path class="st10" d="M107.65,64.17V85c-2.62,0-2.78-1.76-2.78-1.76l-0.31,0.41c-0.09,0.11-0.2,0.24-0.32,0.37
			c-0.29,0.29-0.7,0.55-1.22,0.78c-0.52,0.23-1.19,0.34-1.98,0.34c-3.16,0-5.78-3.07-5.78-7.27c0-4.27,2.46-7.17,5.59-7.17
			c0.74,0,1.47,0.13,2.19,0.4c0.6,0.22,1.13,0.55,1.55,0.99l0.43,0.44v-8.35H107.65z M105,73.16l-0.06-0.07
			c-0.33-0.37-0.81-0.74-1.34-1.04c-0.6-0.34-1.22-0.52-1.83-0.52h-0.03c-1.24,0-2.18,0.58-2.88,1.76
			c-0.66,1.14-0.99,2.67-0.99,4.56c-0.01,1.91,0.37,3.51,1.12,4.76c0.74,1.24,1.68,1.86,2.79,1.86l0.15-0.01
			c0.73-0.06,1.43-0.42,2.1-1.08c0.63-0.7,0.95-1.6,0.97-2.67V73.16z"/>
		<path class="st10" d="M124.65,80.3c-0.26,0.8-1.58,4.82-6.47,4.82c-1.86,0-3.45-0.69-4.74-2.05c-1.27-1.35-1.92-3.56-1.92-5.55
			c0-2.79,1.78-6.86,6.12-6.86c5.54,0,6.08,5.93,6.08,7.08h-9.6c0,2.92,0.96,6.95,4.18,6.95c2.65,0,3.65-2.27,4.09-3.97
			c0.14-0.53,0.69-0.84,1.22-0.7L124.65,80.3z M114.14,77.23h6.97c0-2.56-0.64-6.29-3.72-6.13
			C114.95,71.23,114.14,74.31,114.14,77.23z"/>
		<path class="st10" d="M137.43,71.71l-1.58,1.65c-0.13,0.16-0.38,0.12-0.47-0.07c-0.49-1.01-1.13-1.5-1.94-1.5
			c-0.17,0-0.36,0.03-0.54,0.07c-1.35,0.35-1.78,1.89-1.83,2.07c-0.13,0.51-0.2,1.07-0.2,1.65l-0.03,9.46h-2.59V71.01h2.62v1.91
			l0.45-0.61c0.79-1.07,1.88-1.61,3.26-1.61C135.88,70.73,136.84,71.07,137.43,71.71z"/>
		<path class="st10" d="M149.73,81.05c0,1.29-0.9,4-4.65,4c-0.03,0-4.2,0-4.2,0l0.39-2.38h0.4c0.44,1.58,1.97,1.84,3.29,1.84
			c1.4-0.05,2.58-0.64,2.89-1.87c0.23-0.9-0.14-1.64-0.39-1.92c-0.27-0.32-0.7-0.62-1.3-0.88c-0.78-0.34-1.49-0.61-2.12-0.8
			c-0.8-0.29-1.39-0.52-1.77-0.68c-1.62-0.8-2.42-2.08-2.39-3.78c0.04-1.12,0.43-1.75,1.16-2.49c0.69-0.63,1.82-1.08,3.63-1.08h3.28
			l0.36,2.05l-0.4,0.01c-0.82-0.86-3.01-2.31-4.87-1.29c-1.39,0.77-1.73,2.78-0.78,3.69c0.62,0.6,1.17,0.74,2.57,1.27
			C146.08,77.17,149.73,78.41,149.73,81.05z"/>
	</g>
	<g>
		<g>
			<g>
				<g>
					<polygon class="st7" points="89.68,21.13 87.1,23.71 89.68,26.29 89.68,26.29 					"/>
				</g>
				<g>
					<polygon class="st7" points="100,23.71 97.97,21.63 93.55,36.61 93.55,36.61 					"/>
				</g>
				<g>
					
						<rect x="92.26" y="15.97" transform="matrix(-1.836970e-16 1 -1 -1.836970e-16 115.9711 -71.1294)" class="st10" width="2.58" height="12.9"/>
				</g>
				<g>
					
						<rect x="92.26" y="15.97" transform="matrix(0.7071 0.7071 -0.7071 0.7071 39.6053 -61.0945)" class="st10" width="2.58" height="2.58"/>
				</g>
				<g>
					
						<rect x="96.93" y="16.01" transform="matrix(-1.836970e-16 1 -1 -1.836970e-16 116.012 -81.409)" class="st10" width="3.57" height="2.58"/>
				</g>
				<g>
					
						<rect x="86.61" y="16.01" transform="matrix(-1.836970e-16 1 -1 -1.836970e-16 105.6915 -71.0886)" class="st10" width="3.57" height="2.58"/>
				</g>
				<g>
					<rect x="89.02" y="17.26" class="st10" width="9.04" height="1.82"/>
				</g>
			</g>
			<g>
				<g>
					<path class="st10" d="M93.54,27.82c-0.84,0-1.53-0.69-1.53-1.53c0-0.84,0.69-1.53,1.53-1.53c0.84,0,1.53,0.69,1.53,1.53
						C95.07,27.13,94.38,27.82,93.54,27.82z M93.54,24.89c-0.77,0-1.4,0.63-1.4,1.4s0.63,1.4,1.4,1.4c0.77,0,1.4-0.63,1.4-1.4
						S94.31,24.89,93.54,24.89z"/>
				</g>
				<g>
					<path class="st10" d="M94.88,25.71C94.88,25.71,94.88,25.71,94.88,25.71c-0.01-0.03-0.03-0.07-0.05-0.1c-0.01,0-0.01,0-0.01,0
						c0,0-0.01,0.01-0.01,0.01s-0.01,0-0.01,0.01c0,0-0.01,0-0.01,0l-0.01,0l0.02,0.03l0,0.01l0.01,0.02c0,0,0,0,0.01,0
						c0.01,0,0.03,0,0.03,0l0.01,0C94.86,25.71,94.86,25.7,94.88,25.71C94.88,25.71,94.86,25.71,94.88,25.71L94.88,25.71z"/>
				</g>
				<g>
					<path class="st10" d="M93.12,25.16L93.12,25.16C93.13,25.16,93.12,25.16,93.12,25.16L93.12,25.16z"/>
				</g>
				<g>
					<path class="st10" d="M93.54,26.67c0-0.01-0.05-0.07-0.05-0.07l-0.04-0.01l-0.09-0.03l-0.04-0.02l-0.04,0.02
						c0,0-0.02,0.01-0.04,0.01c-0.02,0-0.04-0.02-0.04-0.02c0,0,0-0.01,0-0.02c0,0,0.02-0.03,0.02-0.03c0,0,0-0.01,0-0.02
						c0-0.01,0.01-0.04-0.01-0.05c-0.02-0.01-0.11-0.04-0.11-0.04s-0.02-0.03-0.03-0.04c-0.01,0-0.07-0.03-0.07-0.03
						S93,26.31,92.99,26.3c0,0-0.05-0.02-0.05-0.02l-0.08-0.01c0,0,0.01-0.02-0.01-0.02c-0.02,0-0.04,0.02-0.04,0.02
						s0,0.02-0.01,0.03c-0.01,0.01-0.04-0.02-0.04-0.02s0-0.01-0.01,0c-0.01,0.01-0.03,0.01-0.03,0.02c0,0.01-0.02,0.01-0.02,0.01
						s-0.03-0.03-0.04-0.02c-0.01,0-0.04,0.01-0.04,0.01s0,0-0.01,0c-0.01,0-0.06-0.05-0.06-0.05s0-0.01,0-0.02c0,0,0-0.05,0-0.05
						l-0.01-0.02c0,0-0.02,0-0.03,0c0,0-0.06-0.01-0.05-0.02c0-0.01,0.01-0.01,0.02-0.02c0-0.02,0-0.06,0-0.06l0.01-0.02
						c0,0-0.03-0.01-0.04,0c-0.01,0.01-0.03,0.03-0.03,0.04c0,0.01-0.06,0.01-0.08,0.02c0,0,0-0.01-0.01-0.02
						C92.35,26.05,92.34,26,92.34,26c0,0-0.02-0.02,0-0.05c0.02-0.03,0.02-0.03,0.02-0.04c0,0,0.04-0.02,0.05-0.03
						c0.01,0,0.02-0.02,0.03-0.02s0.03,0,0.04,0c0,0,0.01,0,0.02,0c0.01,0,0-0.01,0.02-0.01c0.02-0.01,0.03-0.01,0.04,0
						c0.01,0.01,0.06,0,0.06,0s0-0.02,0.01,0.01c0.01,0.03,0.01,0.02,0.01,0.04c0,0.02,0.03,0.03,0.03,0.03s0,0.03,0.01-0.01
						c0.01-0.04,0.01-0.04,0.01-0.05c0-0.01,0-0.05,0-0.05c0,0,0.06-0.07,0.06-0.07s0.03-0.03,0.05-0.05
						c0.01-0.01,0.02-0.04,0.02-0.04s0.02-0.04,0.02-0.04c0,0,0.02-0.01,0.04-0.02c0.02-0.01,0.04-0.01,0.05-0.02
						c0.01-0.01,0.01-0.03,0.03-0.03c0.01-0.01,0.01-0.01,0.03-0.03c0.02-0.01,0.03-0.01,0.06-0.02c0.02-0.01,0.02-0.01,0.02-0.01
						s0.01,0.01,0.01,0.03c0,0.02-0.01,0.02,0,0.02c0.01,0,0.02,0,0.04-0.01c0.01-0.01,0.01,0,0.01-0.01
						c0.01-0.01,0.01-0.04,0.01-0.04s0.01-0.02,0-0.03c-0.02-0.01-0.01-0.01-0.03-0.01c-0.01,0-0.04,0.01-0.04,0
						c0-0.01,0.05-0.04,0.05-0.04s0.02,0,0.05,0c0.02,0,0.07,0,0.08-0.02c0.01-0.01,0.07-0.03,0.07-0.03s0.01-0.03,0-0.04
						c-0.01-0.01-0.03,0-0.04-0.03c-0.01-0.03-0.04-0.08-0.04-0.08c0,0-0.04-0.02-0.04-0.02c0,0-0.02,0-0.02,0l-0.06-0.03
						c0,0-0.01,0.01-0.02,0.01c-0.04,0.02-0.04,0.02-0.05,0.03c-0.01,0.01-0.02,0.02-0.03,0.04c-0.01,0.02-0.01,0.02-0.02,0.03
						C93,25.3,93,25.3,92.98,25.32c-0.02,0.01-0.07,0.06-0.07,0.06s-0.03,0-0.03-0.02c0-0.03-0.01-0.05-0.01-0.06
						c0-0.01-0.03-0.02-0.03-0.02s-0.05,0-0.06-0.01c0-0.01-0.01-0.02-0.01-0.03c0-0.01,0-0.03,0-0.04
						c0.01-0.01,0.01-0.03,0.02-0.03c0.01,0,0.02-0.01,0.04-0.01c0.02,0,0.05,0,0.06-0.01c0.01-0.01,0.02-0.02,0.04-0.02
						c0.02,0,0.02,0,0.04-0.01c0.02-0.01,0.04-0.01,0.05-0.01c0.01,0,0.02-0.01,0.03-0.01c0.01,0,0.02-0.02,0.02-0.02l0.02-0.05
						c0,0-0.01,0-0.05,0.02c-0.04,0.01-0.03,0.05-0.06,0.02C92.96,25.03,92.93,25,92.93,25c0,0-0.02,0-0.03,0.01
						c-0.01,0.01-0.02,0.02-0.03,0.03c-0.01,0.01-0.01,0.02-0.04,0.02c-0.02,0-0.06,0-0.08-0.01c-0.31,0.2-0.55,0.51-0.64,0.89
						c0.01,0.01,0.01,0.02,0.01,0.02c0,0.01,0.06,0.07,0.06,0.07s-0.03,0.04,0,0.05c0.02,0.01,0.02,0,0.05,0.03
						c0.03,0.02,0.06,0.03,0.06,0.03s-0.05-0.01,0.03,0.01c0.08,0.02,0.08,0.03,0.09,0.02c0,0,0-0.03,0.01-0.01
						c0.01,0.02,0,0.02,0.03,0.04c0.03,0.02,0.07,0.05,0.08,0.06c0.01,0.01,0.02,0.02,0.02,0.02s0.05,0.04,0.05,0.04
						c0,0,0.06,0.02,0.06,0.02s0.03-0.01,0.04,0c0.01,0.02,0.01,0.02,0.01,0.04c0,0.01-0.03,0.07-0.03,0.07l-0.02,0.04l-0.03,0.04
						v0.04c0,0,0,0,0.01,0.01c0.01,0.01-0.01,0.06-0.01,0.06l0.03,0.03c0,0,0.01,0.03,0.01,0.04c0.01,0.01,0.02,0.04,0.02,0.05
						c0,0.01,0.01,0.02,0.01,0.02s0.02,0.02,0.03,0.04c0.01,0.02,0.02,0.02,0.03,0.03c0.01,0.01,0,0,0.01,0.01
						c0.01,0.01,0.01,0,0.02,0.01c0.02,0.01-0.01-0.02,0.02,0.01c0.03,0.03,0.03,0.03,0.03,0.03s0.01,0,0.02,0.04
						c0.01,0.04,0.02,0.05,0.02,0.05v0.09c0,0,0.01,0.03,0,0.04c-0.01,0.01-0.01,0.07-0.01,0.08c0,0.01,0.01,0.02,0.01,0.04
						c0,0.02,0.01,0.05,0.01,0.07c0,0.02,0,0.03,0,0.04c0,0.02-0.01,0.06,0,0.09c0.01,0.03-0.01,0,0.03,0.04
						c0.04,0.04,0.05,0.03,0.05,0.05c0,0.02,0,0.03,0.01,0.06c0.01,0.01,0,0.02,0,0.03c0.01,0,0.02,0.01,0.03,0.01c0,0,0,0,0,0
						c0.06,0,0.06-0.01,0.06-0.01s0-0.02,0.01-0.02c0-0.01,0.02-0.04,0.02-0.05c0-0.01-0.01-0.05-0.01-0.05l-0.02-0.03
						c0,0-0.01-0.02,0-0.04c0.01-0.02,0.03-0.05,0.03-0.05s-0.01-0.02,0-0.02c0.01,0,0.02-0.01,0.03-0.01c0,0,0.02-0.02,0.02-0.03
						c0,0,0.01-0.03,0-0.04c-0.01-0.01-0.02-0.02-0.01-0.02c0.01-0.01,0.04-0.03,0.04-0.03s0.01,0,0.02,0
						c0.01,0,0.03-0.03,0.04-0.04c0.01-0.01,0.02-0.03,0.02-0.03c0,0,0.01-0.04,0.02-0.06c0-0.02,0-0.03,0.01-0.03
						c0.01,0,0.01-0.01,0.02-0.01s0.01,0,0.03-0.02c0.02-0.02,0-0.02,0.03-0.02c0.03-0.01,0.04-0.01,0.04-0.01
						c0,0,0.02-0.01,0.03-0.02c0.01-0.01,0.01-0.02,0.02-0.03c0.01-0.01,0.02-0.03,0.02-0.03c0,0-0.01-0.01,0-0.03
						c0.01-0.02,0-0.01,0.02-0.05c0.02-0.04,0.03-0.08,0.04-0.08c0.01-0.01,0.02-0.08,0.02-0.08S93.54,26.68,93.54,26.67
						L93.54,26.67z"/>
				</g>
				<g>
					<path class="st10" d="M92.82,25.03c0.01-0.01,0.02-0.02,0.02-0.02s0,0,0,0c-0.01,0.01-0.03,0.01-0.04,0.02
						C92.81,25.03,92.81,25.04,92.82,25.03L92.82,25.03z"/>
				</g>
				<g>
					<path class="st10" d="M92.91,24.97C92.91,24.97,92.9,24.98,92.91,24.97C92.92,24.98,92.91,24.98,92.91,24.97
						c0.01,0.01,0.02,0.01,0.02,0.01l0.01,0l0.01-0.01h0.01l0.01-0.01v-0.01v-0.01c0,0,0,0-0.01,0
						C92.94,24.96,92.92,24.96,92.91,24.97L92.91,24.97L92.91,24.97z"/>
				</g>
				<g>
					<path class="st10" d="M93.04,24.95L93.04,24.95h-0.02H93H93l-0.01,0.02l0,0.01c0,0,0,0,0,0c0,0,0.01,0,0.01,0c0,0,0,0,0,0
						S93.03,24.96,93.04,24.95C93.03,24.95,93.04,24.96,93.04,24.95c0,0.01,0.01,0.01,0.01,0.01c0,0,0-0.01,0-0.01H93.04
						L93.04,24.95L93.04,24.95z"/>
				</g>
				<g>
					<path class="st10" d="M93.09,24.92c0.01,0,0.01,0,0.01,0s0,0,0.01,0c0.01,0,0.01,0,0.01,0s0.01,0,0.01,0c0,0,0.01,0,0.01,0
						s0.01,0,0.01,0c0,0,0.01,0,0.01,0c0,0,0.01,0,0.01,0c0,0,0.01,0,0.01,0h0.01h0.01c0,0,0.01,0,0.01,0c0,0,0,0,0.01,0
						c0,0,0.01-0.01,0.01-0.01s0,0,0-0.01c-0.01,0,0,0-0.02,0c-0.02,0-0.02,0-0.02,0s0,0-0.01,0c0,0,0,0-0.01,0
						c-0.01,0-0.02,0-0.02,0h-0.01l-0.01,0c0,0,0,0,0,0c0,0-0.01,0-0.01,0l0,0l-0.01,0c0,0-0.01,0-0.02,0c0,0-0.01,0.01-0.01,0.01
						C93.09,24.91,93.09,24.91,93.09,24.92C93.09,24.92,93.09,24.92,93.09,24.92C93.09,24.92,93.08,24.92,93.09,24.92L93.09,24.92z"
						/>
				</g>
				<g>
					<path class="st10" d="M93.35,25.09C93.35,25.09,93.35,25.09,93.35,25.09c0-0.01,0.01-0.01,0-0.02c-0.01,0-0.01,0-0.01-0.01
						c-0.01-0.01-0.01-0.02-0.01-0.02s0,0,0-0.01c0-0.01,0-0.01,0-0.01s0-0.01,0-0.01c-0.01,0-0.02-0.01-0.02-0.01l-0.01-0.02
						c0,0,0,0-0.01-0.01c0,0,0-0.01-0.01-0.01s0,0-0.01,0c-0.01,0-0.02,0-0.02,0l-0.01,0c0,0-0.01,0-0.01-0.01
						c-0.01-0.01-0.01-0.01-0.01-0.01c-0.01,0-0.01,0-0.02,0c0,0-0.01,0-0.01,0c-0.01,0-0.02,0-0.02,0l-0.01,0l-0.01-0.01l-0.01,0h0
						h0c0,0-0.01,0-0.01,0c0,0-0.01,0.01-0.01,0.01s0,0-0.01,0c0,0-0.01,0-0.01,0.01c0,0-0.01,0-0.01,0c0,0,0,0.01-0.01,0.01
						c0,0,0,0,0,0c0,0,0,0,0,0.01c0,0,0,0,0.01,0.01c0,0,0.01,0,0.01,0h0.01c0,0,0,0,0.01,0c0,0,0.01,0,0.01,0c0,0,0.01,0,0.01,0
						h0.01c0,0-0.01,0,0.01,0c0.01,0,0.02,0,0.02,0s0,0,0,0c0.01,0,0.01,0,0.01,0s0.01,0,0.01,0c0,0,0.01,0,0.01,0
						c0,0,0.01,0,0.01,0c0,0,0.01,0,0.01,0c0,0,0.01,0,0.01,0.01c0,0,0.01,0,0.01,0.01c0,0,0,0,0,0c0,0,0,0.01,0.01,0.01
						c0,0.01,0,0,0.01,0.01c0,0.01,0.01,0.01,0.01,0.01c0,0,0.01,0,0.01,0s0.01,0,0.01,0c0,0,0,0,0,0c0,0.01,0,0,0,0.01
						c0,0.01,0.01,0-0.01,0.01c-0.01,0-0.01,0-0.02,0c-0.01,0-0.04,0-0.04,0c0,0-0.01,0-0.01,0.01c0,0.01-0.01,0,0,0.01
						c0,0.01,0,0,0,0.01c0,0.01,0,0,0.01,0.01c0,0.01,0,0.01,0.01,0.02c0.01,0.01,0.02,0.02,0.03,0.02c0.01,0,0.03,0,0.03,0l0.01,0
						c0,0,0.01,0,0-0.01c-0.01-0.01-0.02-0.02-0.02-0.02l0-0.01c0,0,0,0,0,0c0,0,0.02,0.01,0.02,0.01s0,0,0,0c0,0,0,0,0.01,0
						c0.01,0,0.01,0,0.01,0c0,0,0,0,0-0.01c0,0,0-0.01,0-0.01c0,0,0-0.01,0-0.01c0,0,0-0.01,0-0.01c0,0,0,0,0.01-0.01
						c0.01,0,0.01,0,0.01,0s0,0,0.01,0c0,0,0.01,0.01,0.01,0.01s0,0,0.01,0C93.34,25.1,93.34,25.1,93.35,25.09
						C93.34,25.09,93.35,25.1,93.35,25.09L93.35,25.09z"/>
				</g>
				<g>
					<path class="st10" d="M93.26,24.86c-0.01,0.01-0.01,0.01-0.01,0.01s0,0-0.01,0c0,0-0.01-0.01-0.01-0.01l0.01,0.02
						c0,0,0-0.01-0.01,0c0,0.01,0,0.01-0.01,0.01c0,0,0,0-0.01,0c-0.01,0-0.02,0-0.02,0c0,0,0,0-0.01,0c0,0,0,0,0,0
						c-0.01,0-0.01,0-0.01,0c0,0,0.02,0.01,0.02,0.01c0,0,0.01,0,0.01,0l0.01,0c0,0,0,0,0.01,0c0,0,0.01,0,0.01,0s0,0,0.01,0
						c0,0,0.01,0,0.01,0s0,0,0.01,0c0,0,0.01,0,0.01,0c0,0,0-0.01,0.01-0.01c0,0,0.01-0.01,0.01-0.01c0,0,0.01,0,0.01,0
						c0.01,0,0.01,0,0.01,0c0,0,0.01-0.01,0.01-0.01c0,0,0.01-0.01,0.02-0.01c0,0,0.01-0.01,0.02-0.01c0,0,0.02,0,0.02,0
						c0,0,0.01,0,0.01,0c0.01,0,0,0,0.01,0c0.01,0,0.04-0.01,0.04-0.01s0.01,0,0.01,0c0,0,0,0,0.01,0c-0.05,0-0.09,0.01-0.13,0.01
						c-0.01,0.01-0.01,0.01-0.01,0.01c0,0-0.02,0-0.03,0c0,0-0.01,0-0.01,0l0,0c0,0,0,0-0.01,0c0,0,0,0,0,0s0,0,0,0
						c-0.01,0-0.02,0-0.02,0C93.27,24.86,93.27,24.86,93.26,24.86L93.26,24.86z"/>
				</g>
				<g>
					<path class="st10" d="M92.74,26.04c-0.01-0.01-0.01,0-0.01-0.01c-0.01-0.01-0.01,0-0.02-0.01c0-0.01-0.02,0-0.02,0
						s-0.01-0.01-0.02-0.01c0,0-0.03-0.01-0.04-0.01c0,0-0.02,0.01-0.02,0.01l-0.01,0v0.01l0.01,0c0,0,0,0,0.01,0
						c0.01,0,0.01,0,0.01,0l0.01,0l0.01,0c0,0,0.1,0.05,0.1,0.04c0,0,0.01,0,0.01,0v-0.01c0,0,0,0,0,0
						C92.76,26.06,92.75,26.06,92.74,26.04C92.73,26.03,92.74,26.04,92.74,26.04L92.74,26.04z"/>
				</g>
				<g>
					<path class="st10" d="M92.8,26.1L92.8,26.1l-0.03,0.01c0,0,0,0,0.01,0C92.79,26.11,92.8,26.11,92.8,26.1
						c0.01,0.01,0.01,0,0.01,0c0,0,0.01,0,0.02,0c0.01,0,0.01,0,0.01,0c0,0,0.01,0,0.02,0c0.01,0,0,0,0.01,0
						c0.01,0,0.01,0,0.02-0.01c0.02-0.01,0,0,0-0.01c0-0.01,0,0-0.01,0c-0.01,0-0.01,0-0.02-0.01c-0.01,0-0.01,0-0.02,0
						c-0.01,0-0.01,0-0.01,0s-0.01,0-0.01,0c0,0-0.02,0-0.02,0v0.01l0,0.01L92.8,26.1L92.8,26.1L92.8,26.1z"/>
				</g>
				<g>
					<path class="st10" d="M93.44,24.86c-0.01,0-0.03,0.02-0.03,0.02v0.02h0.01c0,0,0.06-0.01,0.08-0.01c0.01,0,0,0,0,0.01
						c0,0.01,0.01,0.03,0.01,0.03l0.04,0.01l0.02,0.02c0,0,0,0,0,0.01c0,0.01,0,0.01,0,0.01c0,0.01-0.01,0.01-0.01,0.01v0.01
						c0,0,0.01,0,0,0.01c0,0.01-0.01,0.02-0.01,0.02c0,0-0.01,0-0.01,0.01c0,0-0.01,0.02-0.01,0.02s-0.01,0.01-0.01,0.01
						c0,0,0,0.02,0,0.02s-0.01,0.01-0.02,0.01c-0.01,0-0.01,0.03-0.01,0.04c0,0.01,0.01,0.03,0.01,0.03s0.01,0.01,0.03,0.02
						c0.02,0,0.08,0,0.08-0.02c0-0.02,0.04-0.02,0.04-0.02s0,0,0.02-0.02c0.02-0.02,0.01-0.01,0.03-0.03c0.01-0.02,0.01,0,0.01,0
						s0.04,0,0.07-0.02c0.03-0.01,0.01,0,0.01,0s0.02-0.02,0.03-0.03c0,0,0.06-0.01,0.08-0.02c0.02-0.01,0.01,0,0.02,0
						c0.01,0,0.02,0,0.02,0s0.01,0,0.02-0.01c0.01-0.01-0.01-0.01-0.01-0.01s-0.01-0.01,0-0.02c0,0,0.01-0.01,0.01-0.01v-0.01
						l0.01-0.01c0,0,0.01-0.01,0.05-0.03c0.03-0.01,0.03-0.01,0.03-0.01c-0.16-0.06-0.32-0.09-0.5-0.09c-0.01,0-0.01,0.03-0.01,0.03
						c-0.01,0.01-0.04,0.01-0.04,0.01S93.45,24.87,93.44,24.86L93.44,24.86z"/>
				</g>
				<g>
					<path class="st10" d="M94.15,25.31c0.01-0.01,0,0,0-0.01h-0.01c0,0-0.01,0-0.01,0c0,0-0.01,0-0.01,0c0,0-0.01,0-0.02-0.01
						c-0.01-0.01-0.01,0-0.01,0l-0.03,0.02h-0.02l-0.01,0.02h0.01l0.01,0l0.01,0.01h0.01h0.01c0,0,0.01,0,0.02,0c0,0,0.01,0,0.01,0
						l0.01-0.01h0.01C94.13,25.32,94.14,25.32,94.15,25.31L94.15,25.31z"/>
				</g>
				<g>
					<path class="st10" d="M94.22,25.39c0,0-0.02,0.02-0.02,0.02h0.02l0.01-0.01c0.01,0,0.03,0,0.03,0h0.01h0.01l0.01,0v-0.01v-0.01
						l0.01-0.01l-0.01-0.01l-0.02-0.02l0-0.01l-0.01-0.02l-0.01-0.02h-0.01c0,0,0-0.01,0-0.01s0-0.01,0-0.01v-0.01l-0.01-0.01
						c0,0-0.01-0.02-0.01,0c0,0.02,0,0.01,0,0.02c0,0.01,0,0,0,0.01c0,0.01,0,0.01,0,0.01v0.01l0.02,0.01l0.01,0.01v0.01v0.01v0.01
						h-0.01v0.01h-0.01v0.01v0.01v0.01h0.01l0.01,0.01l-0.01,0.01C94.23,25.39,94.22,25.39,94.22,25.39L94.22,25.39z"/>
				</g>
				<g>
					<path class="st10" d="M94.43,25.14c-0.01,0-0.01,0-0.02,0.01c0,0.01-0.02,0.01-0.02,0.02c0,0.01,0,0,0,0.02
						c0,0.02,0,0.02,0.01,0.03c0,0.01,0.01,0.01,0.01,0.02c0,0.01,0.01,0.01,0.01,0.01s0.01,0,0.02,0c0.01,0,0.03-0.01,0.04-0.01
						c0.01,0,0.01,0,0.01,0.01c0.01,0.01,0,0,0.01,0.02c0,0.02,0,0.02,0.01,0.03c0.01,0.01,0.02,0.01,0.02,0.01
						c0.01,0,0.02-0.01,0.02-0.01c0.01,0,0.01-0.02,0.02-0.02c-0.04-0.04-0.09-0.08-0.14-0.12C94.43,25.14,94.43,25.14,94.43,25.14
						L94.43,25.14z"/>
				</g>
				<g>
					<path class="st10" d="M94.92,25.83C94.92,25.83,94.91,25.83,94.92,25.83c-0.01,0-0.02,0-0.02,0c0,0-0.03,0.01-0.04,0
						c0-0.01-0.05-0.02-0.05-0.02c-0.01,0.01-0.04,0.01-0.04,0.01c-0.01,0-0.03-0.01-0.03-0.01l-0.02-0.01l-0.04,0
						c0,0-0.01,0.01-0.01,0.02c0,0.01,0.01,0.02,0,0.03c-0.01,0.01-0.02,0.01-0.02,0.01s-0.01,0-0.01,0c0,0-0.04-0.01-0.05-0.01
						c-0.01,0-0.03-0.01-0.03-0.01V25.8l-0.03-0.01c0,0-0.01,0-0.02,0c-0.01,0-0.03-0.02-0.03-0.02l0-0.03v-0.01l-0.01-0.02
						c0,0,0-0.02-0.01-0.02c-0.01,0-0.04,0.01-0.04,0.01l-0.02,0h-0.02c0,0,0.01,0-0.01,0s-0.07,0-0.07,0
						c-0.02,0.02-0.05,0.04-0.05,0.04s-0.04,0-0.05,0c0,0-0.03-0.01-0.03-0.01s0,0.01-0.01,0.02c-0.01,0.01-0.01,0.01-0.01,0.01
						l-0.03,0.03l-0.02,0.02c0,0.01,0.01,0.03,0,0.04c-0.01,0.01-0.02,0.02-0.02,0.02h-0.01c0,0-0.01,0.01-0.01,0.02
						c0,0.01-0.01,0.01-0.01,0.01s-0.01,0-0.01,0.01c0,0.01-0.02,0.02-0.02,0.02l-0.02,0.04c0,0,0.01,0,0,0.01
						c-0.01,0.02-0.02,0.02-0.03,0.04c0,0.01,0-0.01,0,0.01c0,0.02-0.01,0.03,0,0.04c0.01,0.01,0.01,0.01,0.01,0.02
						c0,0.01,0,0.01,0,0.03c0,0.01,0,0-0.01,0.03c-0.01,0.02,0,0.04,0,0.05c0,0.01-0.02-0.02,0,0.01c0.02,0.02,0.03,0.03,0.04,0.04
						c0.01,0.01,0-0.03,0.01,0.01C94,26.31,94,26.3,94.01,26.33c0.01,0.03,0.01,0.03,0.02,0.04c0.01,0.02,0.01,0.01,0.03,0.03
						c0.02,0.01-0.03,0,0.02,0.01c0.04,0.01,0.03,0.01,0.06,0c0.03-0.01,0.01-0.01,0.03-0.01c0.02,0,0.05,0,0.05,0s0.01,0,0.01,0
						c0.01,0,0.05-0.01,0.05-0.01s-0.01-0.01,0.01-0.01c0.02-0.01,0,0,0.02-0.01c0.01,0,0.01,0,0.01,0s0.01,0,0.02,0
						c0.01,0.01,0.03,0.01,0.04,0.02c0.01,0.01-0.01-0.01,0.01,0.01c0.02,0.02,0.04,0.02,0.04,0.02s0-0.01,0.01,0
						c0.01,0.01,0.01,0.01,0.01,0.02c0,0.01,0-0.01,0,0.01c0,0.02-0.01,0.01-0.01,0.04c0,0.03,0,0,0,0.03c0.01,0.02,0,0,0.01,0.04
						c0.02,0.03-0.01,0.02,0.02,0.05c0,0,0.03,0.03,0.03,0.04c0,0.01,0,0,0,0.02c0,0.02,0.01,0.02,0.01,0.03
						c0,0.01,0.01,0.02,0.01,0.03c0,0.01,0,0.02,0,0.03c0,0.01,0,0.02,0,0.03c0,0.01-0.01,0.01-0.01,0.02
						c0,0.01-0.01,0.01-0.02,0.03c0,0.03-0.01,0.03,0,0.05c0,0.02,0,0.03,0.01,0.04c0,0.01,0.01,0.02,0.02,0.04
						c0.01,0.02,0.02,0.04,0.02,0.05c0.01,0.01,0,0,0.01,0.03c0.01,0.02,0,0.01,0.01,0.04c0.01,0.03,0,0.04,0.02,0.06
						c0.01,0.03,0.02,0.04,0.03,0.04c0,0,0-0.01,0.01,0.02c0.01,0.03-0.01,0.02,0.01,0.04c0.22-0.26,0.36-0.59,0.36-0.96
						C95,26.13,94.97,25.97,94.92,25.83L94.92,25.83z"/>
				</g>
				<g>
					<path class="st10" d="M94.64,25.32C94.63,25.32,94.63,25.33,94.64,25.32c-0.01,0-0.02,0-0.02,0c0,0-0.03,0-0.03,0
						c0,0-0.02,0-0.02,0.01c0,0-0.02,0.01-0.02,0c0,0-0.02-0.01-0.02-0.01h-0.02c0,0-0.01,0-0.02,0c0,0-0.01,0-0.01,0
						c0,0-0.02,0.01-0.02,0.01c0,0,0,0-0.01,0c-0.01,0-0.01-0.01-0.02,0c-0.01,0.01-0.02,0-0.02,0.01c0,0-0.01,0.01-0.01,0.01
						c0,0,0,0-0.01,0.01c-0.01,0.01-0.02,0.01-0.02,0.02c0,0,0,0-0.01,0.01c-0.01,0-0.01,0.01-0.02,0.01
						c-0.01,0-0.02,0.01-0.03,0.01c-0.01,0.01-0.01,0.01-0.02,0.02c-0.01,0-0.02,0.01-0.03,0.01c-0.01,0-0.02,0-0.02,0
						c0,0-0.02,0-0.02,0.01c0,0,0,0.01,0.01,0.01c0.01,0,0.02,0.01,0.02,0.01c0,0,0-0.01,0,0c0.01,0.01,0,0.01,0,0.02
						c0,0.01,0,0,0,0.01c0,0.01,0,0.02,0,0.03c0,0,0,0,0,0c0,0,0,0,0,0c0,0,0,0,0,0.01c0,0.01,0.01,0.01,0,0.01
						c-0.01,0.01-0.01,0.01-0.01,0.01c-0.01,0-0.02-0.01-0.02-0.01s-0.01,0-0.02,0c-0.01,0-0.02,0-0.03,0c-0.01,0,0,0-0.01,0
						c-0.01,0-0.01,0-0.02,0c0,0-0.01,0.01-0.01,0.01v0.01c0,0,0-0.01,0.01,0c0.01,0.01,0.03,0.01,0.03,0.01l0.01,0.01
						c0,0,0,0,0,0.01c0,0-0.01,0.01-0.01,0.01s0.01,0,0,0.01c-0.01,0.01,0,0.02,0,0.02s-0.01,0.01-0.01,0.01
						c-0.01,0-0.01,0.01-0.01,0.01c0,0,0.01,0.02,0.01,0.02h0.01h0.02h0.01c0,0,0.01,0,0.02,0c0.01,0,0.03-0.02,0.03-0.02
						s0.01-0.01,0.01-0.02c0,0,0.01-0.02,0.01-0.02l0.01-0.02l0.02-0.02l0.01-0.01l0.01-0.02v-0.01l0.03-0.02h0.01
						c0,0,0-0.01,0.01,0c0.01,0.01,0.01,0.01,0.01,0.01l0.03,0l0.01-0.01l0.02-0.01l0.01,0.01l0.01,0.01c0,0,0,0,0.01,0.01
						c0.01,0,0.01,0.01,0.02,0.01c0.01,0,0.02,0.01,0.02,0.01l0.03,0.02c0,0,0.01,0,0.01,0c0.01,0,0.01,0.01,0.01,0.01v0.01
						c0,0,0,0,0.01,0.01c0,0,0,0,0,0.01c0,0.01,0,0.01,0,0.01s-0.01,0.02,0,0.02c0.01,0,0.01,0,0.01,0v-0.02v-0.02v-0.02
						c0,0,0.01-0.01,0.01,0c0.01,0.01,0.01,0.01,0.01,0.01l0.01,0c0,0,0-0.01-0.01-0.01c-0.01,0-0.04-0.02-0.04-0.02l-0.02-0.02
						l-0.01-0.01l-0.01-0.02l-0.01-0.02H94.5l0.01-0.02c0,0,0.01,0,0.02,0c0,0,0.01,0.01,0.01,0.01s0.02,0.01,0.03,0.02
						c0.01,0,0.03,0.01,0.03,0.01l0.02,0.01c0,0-0.01,0,0,0c0.01,0.01,0.01,0.01,0.01,0.01s0.01,0,0.01,0.01
						c0.01,0.02-0.01,0.02,0,0.03c0.01,0,0.01,0,0.01,0s0,0.02,0.01,0.02s0.02,0,0.02,0s0.01,0.02,0.01,0.02c0,0,0.01,0,0,0
						c-0.01,0-0.01-0.01-0.01,0c0,0.01,0,0.03,0,0.03h0.01c0,0,0.01,0.01,0.02,0c0.01-0.01,0.01-0.02,0.01-0.02s0-0.01,0-0.02
						c0,0-0.01-0.02-0.01-0.02s-0.01-0.01,0-0.01c0-0.01,0.01-0.03,0.03-0.03c0.01,0.01,0.03-0.01,0.03,0
						c0.01,0.01,0.01,0.01,0.02,0.01c0,0,0.02-0.01,0.02-0.01s0.01-0.01,0-0.01c-0.01,0-0.01-0.01-0.01-0.02c0,0,0-0.02,0-0.02
						C94.75,25.47,94.7,25.4,94.64,25.32L94.64,25.32z"/>
				</g>
				<g>
					<path class="st10" d="M94.43,25.59c0-0.01-0.02-0.01-0.02-0.01l0-0.01c0,0.01-0.01,0.02-0.01,0.03c0,0.01,0,0.02,0,0.03
						c0,0.01-0.01,0.06,0.01,0.04c0.02-0.02,0-0.04,0.01-0.05C94.42,25.61,94.43,25.6,94.43,25.59L94.43,25.59z"/>
				</g>
				<g>
					<path class="st10" d="M93.31,25.43c0-0.01,0-0.02,0-0.03c0,0,0,0,0,0v0c-0.01,0.01-0.02,0.03-0.04,0.04
						c-0.01,0.01-0.04,0.02-0.02,0.02c0.01,0,0.02,0,0.03,0c0.01,0,0.01,0.01,0.02,0.01c0.02,0.01,0.04-0.01,0.03-0.03
						C93.32,25.44,93.31,25.44,93.31,25.43L93.31,25.43z"/>
				</g>
			</g>
		</g>
		<g>
			<g>
				<path class="st10" d="M93.55,44.08c-5.61,0-10.18-4.57-10.18-10.18V18.15c0-5.61,4.57-10.18,10.18-10.18
					c5.61,0,10.18,4.57,10.18,10.18V33.9C103.73,39.52,99.17,44.08,93.55,44.08z M93.55,9.1c-4.99,0-9.05,4.06-9.05,9.05V33.9
					c0,4.99,4.06,9.05,9.05,9.05c4.99,0,9.05-4.06,9.05-9.05V18.15C102.6,13.16,98.54,9.1,93.55,9.1z"/>
			</g>
		</g>
		<g>
			<circle class="st10" cx="93.29" cy="39.51" r="0.75"/>
		</g>
	</g>
	<g>
		<path d="M61.51,91.27v-2.73h0.78c0.16,0,0.29,0.02,0.4,0.05c0.11,0.03,0.21,0.08,0.28,0.14s0.13,0.13,0.17,0.22
			c0.04,0.09,0.05,0.18,0.05,0.29c0,0.07-0.01,0.14-0.04,0.21c-0.03,0.07-0.06,0.13-0.11,0.18c-0.05,0.06-0.11,0.11-0.17,0.15
			c-0.07,0.04-0.15,0.07-0.24,0.1c0.21,0.03,0.38,0.1,0.5,0.21s0.17,0.26,0.17,0.44c0,0.12-0.02,0.22-0.06,0.31s-0.1,0.17-0.18,0.24
			s-0.17,0.11-0.29,0.15s-0.24,0.05-0.39,0.05H61.51z M61.71,89.81h0.59c0.13,0,0.23-0.02,0.32-0.05c0.09-0.03,0.16-0.08,0.22-0.13
			s0.1-0.11,0.13-0.18c0.03-0.07,0.04-0.14,0.04-0.21c0-0.18-0.06-0.32-0.17-0.42c-0.12-0.09-0.3-0.14-0.54-0.14h-0.59V89.81z
			 M61.71,89.96v1.15h0.68c0.24,0,0.42-0.05,0.54-0.16s0.18-0.25,0.18-0.44c0-0.09-0.02-0.16-0.05-0.23
			c-0.03-0.07-0.08-0.13-0.14-0.17c-0.06-0.05-0.14-0.08-0.23-0.11c-0.09-0.03-0.19-0.04-0.31-0.04H61.71z"/>
		<path d="M67.46,89.9c0,0.21-0.03,0.4-0.09,0.57c-0.06,0.17-0.15,0.32-0.27,0.44c-0.11,0.12-0.25,0.21-0.41,0.28
			c-0.16,0.07-0.34,0.1-0.53,0.1c-0.19,0-0.37-0.03-0.53-0.1s-0.3-0.16-0.41-0.28c-0.12-0.12-0.2-0.27-0.27-0.44
			c-0.06-0.17-0.09-0.36-0.09-0.57s0.03-0.4,0.09-0.57c0.06-0.17,0.15-0.32,0.27-0.44c0.11-0.12,0.25-0.21,0.41-0.28
			c0.16-0.07,0.33-0.1,0.53-0.1c0.19,0,0.37,0.03,0.53,0.1c0.16,0.07,0.3,0.16,0.41,0.28c0.11,0.12,0.2,0.27,0.27,0.44
			C67.42,89.5,67.46,89.69,67.46,89.9z M67.25,89.9c0-0.19-0.03-0.36-0.08-0.51c-0.05-0.15-0.13-0.28-0.22-0.39
			s-0.21-0.19-0.35-0.24c-0.14-0.06-0.29-0.08-0.45-0.08c-0.16,0-0.31,0.03-0.44,0.08c-0.13,0.06-0.25,0.14-0.35,0.24
			c-0.1,0.11-0.17,0.23-0.23,0.39c-0.05,0.15-0.08,0.32-0.08,0.51c0,0.19,0.03,0.36,0.08,0.51c0.05,0.15,0.13,0.28,0.23,0.38
			c0.1,0.11,0.21,0.19,0.35,0.24c0.13,0.06,0.28,0.08,0.44,0.08c0.16,0,0.31-0.03,0.45-0.08c0.13-0.05,0.25-0.14,0.35-0.24
			c0.1-0.1,0.17-0.23,0.22-0.38C67.22,90.26,67.25,90.09,67.25,89.9z"/>
		<path d="M71.57,89.9c0,0.21-0.03,0.4-0.09,0.57c-0.06,0.17-0.15,0.32-0.27,0.44c-0.11,0.12-0.25,0.21-0.41,0.28
			s-0.34,0.1-0.53,0.1c-0.19,0-0.37-0.03-0.53-0.1c-0.16-0.07-0.3-0.16-0.41-0.28c-0.11-0.12-0.2-0.27-0.27-0.44
			c-0.06-0.17-0.1-0.36-0.1-0.57s0.03-0.4,0.1-0.57c0.06-0.17,0.15-0.32,0.27-0.44c0.11-0.12,0.25-0.21,0.41-0.28
			c0.16-0.07,0.33-0.1,0.53-0.1c0.19,0,0.37,0.03,0.53,0.1c0.16,0.07,0.3,0.16,0.41,0.28c0.11,0.12,0.2,0.27,0.27,0.44
			C71.54,89.5,71.57,89.69,71.57,89.9z M71.37,89.9c0-0.19-0.03-0.36-0.08-0.51c-0.05-0.15-0.13-0.28-0.22-0.39
			s-0.21-0.19-0.35-0.24s-0.28-0.08-0.45-0.08c-0.16,0-0.31,0.03-0.44,0.08c-0.13,0.06-0.25,0.14-0.35,0.24s-0.17,0.23-0.23,0.39
			c-0.05,0.15-0.08,0.32-0.08,0.51c0,0.19,0.03,0.36,0.08,0.51c0.05,0.15,0.13,0.28,0.23,0.38c0.1,0.11,0.21,0.19,0.35,0.24
			c0.13,0.06,0.28,0.08,0.44,0.08c0.17,0,0.31-0.03,0.45-0.08c0.13-0.05,0.25-0.14,0.35-0.24c0.1-0.1,0.17-0.23,0.22-0.38
			C71.34,90.26,71.37,90.09,71.37,89.9z"/>
		<path d="M73.51,89.8h0.16c0.02,0,0.05,0,0.06,0c0.02,0,0.03-0.01,0.05-0.01c0.02-0.01,0.03-0.01,0.04-0.02
			c0.01-0.01,0.03-0.02,0.04-0.04l1.1-1.13c0.02-0.02,0.04-0.04,0.06-0.04c0.02-0.01,0.04-0.01,0.06-0.01h0.16l-1.19,1.22
			c-0.02,0.03-0.05,0.04-0.06,0.06c-0.02,0.01-0.04,0.03-0.06,0.03c0.03,0.01,0.05,0.02,0.07,0.04c0.02,0.02,0.04,0.04,0.06,0.06
			l1.26,1.31h-0.16c-0.03,0-0.06,0-0.07-0.01c-0.01-0.01-0.03-0.02-0.04-0.04l-1.15-1.18c-0.01-0.01-0.03-0.03-0.04-0.04
			c-0.01-0.01-0.03-0.02-0.04-0.03c-0.01-0.01-0.03-0.01-0.05-0.02s-0.05,0-0.08,0h-0.18v1.31h-0.2v-2.73h0.2V89.8z"/>
		<path d="M77.11,91.27h-0.2v-2.73h0.2V91.27z"/>
		<path d="M79.17,88.54c0.01,0,0.02,0.01,0.03,0.03l1.77,2.36c0-0.04-0.01-0.08-0.01-0.11v-2.29h0.17v2.73h-0.09
			c-0.03,0-0.05-0.01-0.07-0.04l-1.77-2.37c0,0.04,0.01,0.08,0.01,0.11v2.3h-0.17v-2.73h0.1C79.14,88.54,79.16,88.54,79.17,88.54z"
			/>
		<path d="M84.16,91.14c0.09,0,0.18,0,0.26-0.01s0.15-0.02,0.21-0.04c0.07-0.02,0.13-0.04,0.19-0.07c0.06-0.03,0.12-0.06,0.18-0.09
			v-0.73h-0.52c-0.01,0-0.03,0-0.04-0.01s-0.01-0.02-0.01-0.03v-0.11h0.75V91c-0.07,0.05-0.14,0.09-0.21,0.13s-0.15,0.07-0.24,0.09
			c-0.08,0.02-0.17,0.04-0.27,0.06s-0.2,0.02-0.32,0.02c-0.2,0-0.38-0.03-0.54-0.1c-0.16-0.07-0.3-0.16-0.42-0.28
			c-0.12-0.12-0.21-0.27-0.27-0.44s-0.1-0.36-0.1-0.57c0-0.21,0.03-0.4,0.1-0.57c0.06-0.17,0.16-0.32,0.27-0.44
			c0.12-0.12,0.26-0.22,0.43-0.28c0.17-0.07,0.36-0.1,0.57-0.1c0.1,0,0.2,0.01,0.29,0.02c0.09,0.01,0.17,0.04,0.25,0.06
			c0.08,0.03,0.15,0.06,0.21,0.1c0.07,0.04,0.13,0.09,0.19,0.14l-0.05,0.08c-0.01,0.02-0.03,0.03-0.05,0.03
			c-0.01,0-0.02,0-0.03-0.01c-0.02-0.01-0.05-0.03-0.08-0.05c-0.04-0.03-0.09-0.06-0.15-0.09c-0.06-0.03-0.14-0.06-0.23-0.08
			s-0.21-0.04-0.34-0.04c-0.18,0-0.34,0.03-0.48,0.08S83.44,88.9,83.34,89c-0.1,0.11-0.18,0.23-0.23,0.39
			c-0.05,0.15-0.08,0.32-0.08,0.51c0,0.19,0.03,0.37,0.08,0.52c0.05,0.15,0.13,0.28,0.23,0.39c0.1,0.11,0.22,0.19,0.36,0.24
			C83.83,91.11,83.99,91.14,84.16,91.14z"/>
		<path d="M90.75,91.27H90.6c-0.02,0-0.03,0-0.04-0.01s-0.02-0.02-0.03-0.04l-0.32-0.79h-1.34l-0.32,0.79
			c0,0.01-0.01,0.03-0.03,0.04c-0.01,0.01-0.03,0.02-0.05,0.02h-0.15l1.12-2.73h0.2L90.75,91.27z M88.92,90.28h1.22l-0.56-1.38
			c-0.01-0.02-0.02-0.05-0.03-0.07c-0.01-0.03-0.02-0.06-0.03-0.09c-0.01,0.03-0.02,0.06-0.03,0.09c-0.01,0.03-0.02,0.05-0.03,0.08
			L88.92,90.28z"/>
		<path d="M92.36,88.54c0.01,0,0.02,0.01,0.03,0.03l1.77,2.36c0-0.04-0.01-0.08-0.01-0.11v-2.29h0.17v2.73h-0.09
			c-0.03,0-0.05-0.01-0.07-0.04l-1.77-2.37c0,0.04,0.01,0.08,0.01,0.11v2.3h-0.17v-2.73h0.1C92.34,88.54,92.35,88.54,92.36,88.54z"
			/>
		<path d="M98.47,89.9c0,0.21-0.03,0.4-0.09,0.57c-0.06,0.17-0.15,0.31-0.27,0.43s-0.25,0.21-0.41,0.27
			c-0.16,0.06-0.34,0.09-0.53,0.09h-0.99v-2.73h0.99c0.19,0,0.37,0.03,0.53,0.09s0.3,0.15,0.41,0.27s0.2,0.26,0.27,0.43
			C98.44,89.5,98.47,89.69,98.47,89.9z M98.27,89.9c0-0.19-0.03-0.36-0.08-0.51c-0.05-0.15-0.13-0.28-0.22-0.38
			s-0.21-0.18-0.35-0.24s-0.28-0.08-0.45-0.08h-0.8v2.41h0.8c0.17,0,0.31-0.03,0.45-0.08c0.13-0.05,0.25-0.13,0.35-0.23
			c0.1-0.1,0.17-0.23,0.22-0.38C98.24,90.26,98.27,90.09,98.27,89.9z"/>
		<path d="M103.71,88.54v0.17h-0.96v2.56h-0.2v-2.56h-0.96v-0.17H103.71z"/>
		<path d="M105.48,90.03v1.23h-0.2v-2.73h0.7c0.31,0,0.55,0.06,0.71,0.18c0.16,0.12,0.23,0.3,0.23,0.53c0,0.1-0.02,0.2-0.05,0.29
			c-0.04,0.09-0.09,0.16-0.16,0.23c-0.07,0.07-0.15,0.12-0.24,0.16c-0.09,0.04-0.2,0.07-0.32,0.08c0.03,0.02,0.06,0.04,0.08,0.08
			l0.94,1.18h-0.17c-0.02,0-0.04,0-0.05-0.01s-0.03-0.02-0.04-0.04l-0.87-1.11c-0.02-0.03-0.04-0.05-0.07-0.06
			c-0.02-0.01-0.06-0.02-0.12-0.02H105.48z M105.48,89.89h0.47c0.12,0,0.23-0.01,0.33-0.04c0.1-0.03,0.18-0.07,0.24-0.12
			c0.07-0.05,0.12-0.12,0.15-0.19c0.04-0.08,0.05-0.16,0.05-0.26c0-0.19-0.06-0.34-0.19-0.43c-0.13-0.09-0.31-0.14-0.55-0.14h-0.5
			V89.89z"/>
		<path d="M110.75,91.27h-0.15c-0.02,0-0.03,0-0.04-0.01s-0.02-0.02-0.03-0.04l-0.32-0.79h-1.34l-0.32,0.79
			c0,0.01-0.01,0.03-0.03,0.04c-0.01,0.01-0.03,0.02-0.05,0.02h-0.15l1.12-2.73h0.2L110.75,91.27z M108.93,90.28h1.22l-0.56-1.38
			c-0.01-0.02-0.02-0.05-0.03-0.07c-0.01-0.03-0.02-0.06-0.03-0.09c-0.01,0.03-0.02,0.06-0.03,0.09c-0.01,0.03-0.02,0.05-0.03,0.08
			L108.93,90.28z"/>
		<path d="M111.67,88.54h0.16c0.02,0,0.03,0,0.04,0.01s0.02,0.02,0.03,0.04l0.93,2.26c0.02,0.06,0.04,0.12,0.06,0.19
			c0.01-0.07,0.03-0.13,0.06-0.19l0.93-2.26c0.01-0.01,0.02-0.03,0.03-0.04c0.01-0.01,0.03-0.02,0.05-0.02h0.15l-1.13,2.73h-0.18
			L111.67,88.54z"/>
		<path d="M117.2,88.54v0.16h-1.44v1.1h1.2v0.16h-1.2v1.14h1.44v0.16h-1.63v-2.73H117.2z"/>
		<path d="M119.08,91.1h1.29v0.17h-1.49v-2.73h0.2V91.1z"/>
		<path d="M122.17,91.27h-0.2v-2.73h0.2V91.27z"/>
		<path d="M124.23,88.54c0.01,0,0.02,0.01,0.03,0.03l1.77,2.36c0-0.04-0.01-0.08-0.01-0.11v-2.29h0.17v2.73h-0.09
			c-0.03,0-0.05-0.01-0.07-0.04l-1.77-2.37c0,0.04,0.01,0.08,0.01,0.11v2.3h-0.17v-2.73h0.1C124.21,88.54,124.22,88.54,124.23,88.54
			z"/>
		<path d="M129.22,91.14c0.09,0,0.18,0,0.26-0.01s0.15-0.02,0.21-0.04c0.07-0.02,0.13-0.04,0.19-0.07c0.06-0.03,0.12-0.06,0.18-0.09
			v-0.73h-0.52c-0.01,0-0.03,0-0.04-0.01s-0.01-0.02-0.01-0.03v-0.11h0.75V91c-0.07,0.05-0.14,0.09-0.21,0.13s-0.15,0.07-0.24,0.09
			c-0.08,0.02-0.17,0.04-0.27,0.06c-0.1,0.01-0.2,0.02-0.32,0.02c-0.2,0-0.38-0.03-0.54-0.1c-0.16-0.07-0.3-0.16-0.42-0.28
			c-0.12-0.12-0.21-0.27-0.27-0.44c-0.06-0.17-0.1-0.36-0.1-0.57c0-0.21,0.03-0.4,0.1-0.57c0.06-0.17,0.16-0.32,0.27-0.44
			c0.12-0.12,0.26-0.22,0.43-0.28c0.17-0.07,0.36-0.1,0.57-0.1c0.1,0,0.2,0.01,0.29,0.02c0.09,0.01,0.17,0.04,0.25,0.06
			c0.08,0.03,0.15,0.06,0.21,0.1c0.07,0.04,0.13,0.09,0.19,0.14l-0.05,0.08c-0.01,0.02-0.03,0.03-0.05,0.03
			c-0.01,0-0.02,0-0.03-0.01c-0.02-0.01-0.05-0.03-0.08-0.05c-0.04-0.03-0.09-0.06-0.15-0.09c-0.06-0.03-0.14-0.06-0.23-0.08
			s-0.21-0.04-0.34-0.04c-0.18,0-0.34,0.03-0.48,0.08S128.5,88.9,128.4,89s-0.18,0.23-0.23,0.39c-0.05,0.15-0.08,0.32-0.08,0.51
			c0,0.19,0.03,0.37,0.08,0.52c0.06,0.15,0.13,0.28,0.23,0.39c0.1,0.11,0.22,0.19,0.36,0.24S129.05,91.14,129.22,91.14z"/>
	</g>
</g>
</svg>
