<?xml version="1.0" encoding="utf-8"?>
<!-- Generator: Adobe Illustrator 25.0.0, SVG Export Plug-In . SVG Version: 6.00 Build 0)  -->
<svg version="1.1" id="Camada_1" xmlns="http://www.w3.org/2000/svg" xmlns:xlink="http://www.w3.org/1999/xlink" x="0px" y="0px"
	 viewBox="0 0 200 100" style="enable-background:new 0 0 200 100;" xml:space="preserve">
<style type="text/css">
	.st0{display:none;}
	.st1{display:inline;fill:#3F0D0C;}
	.st2{display:inline;fill:#D9B061;}
	.st3{display:inline;fill:#370B0A;}
	.st4{fill:#FFFFFF;}
	.st5{fill:#B3B3B3;}
	.st6{fill:#370B0A;}
	.st7{fill:#290808;}
	.st8{fill:#D9B061;}
	.st9{fill:#B59351;}
	.st10{fill:#3F0D0C;}
</style>
<g class="st0">
	<rect class="st2" width="200" height="100"/>
</g>
<g>
	<g>
		<path class="st6" d="M40.44,53.21c0,1.04-0.73,3.24-3.76,3.24c-0.02,0-3.39,0-3.39,0l0.31-1.92h0.32
			c0.36,1.27,1.59,1.49,2.66,1.49c1.13-0.04,2.08-0.51,2.33-1.51c0.19-0.73-0.11-1.32-0.32-1.56c-0.21-0.26-0.57-0.5-1.05-0.71
			c-0.63-0.27-1.21-0.49-1.71-0.65c-0.65-0.24-1.12-0.42-1.43-0.55c-1.3-0.65-1.96-1.68-1.93-3.06c0.03-0.91,0.34-1.41,0.94-2.01
			c0.55-0.51,1.47-0.87,2.93-0.87H39l0.29,1.66l-0.33,0.01c-0.66-0.7-2.43-1.87-3.94-1.04c-1.13,0.62-1.39,2.24-0.63,2.98
			c0.5,0.48,0.95,0.6,2.07,1.02C37.49,50.07,40.44,51.07,40.44,53.21z"/>
		<path class="st6" d="M53.51,52.6c-0.21,0.64-1.28,3.9-5.22,3.9c-1.5,0-2.79-0.56-3.83-1.66c-1.03-1.09-1.55-2.88-1.55-4.49
			c0-2.25,1.44-5.54,4.94-5.54c4.48,0,4.92,4.79,4.92,5.72h-7.76c0,2.36,0.78,5.61,3.37,5.61c2.14,0,2.95-1.84,3.3-3.21
			c0.11-0.43,0.56-0.68,0.98-0.56L53.51,52.6z M45.02,50.12h5.63c0-2.07-0.51-5.09-3.01-4.95C45.67,45.27,45.02,47.76,45.02,50.12z"
			/>
		<path class="st6" d="M64.38,45.09l-4.68,11.34h-0.36l-4.75-11.34h2.29l3.49,8.6l3.6-8.6H64.38z"/>
		<path class="st6" d="M76.73,52.6c-0.21,0.64-1.28,3.9-5.22,3.9c-1.5,0-2.79-0.56-3.83-1.66c-1.03-1.09-1.55-2.88-1.55-4.49
			c0-2.25,1.44-5.54,4.94-5.54c4.48,0,4.92,4.79,4.92,5.72h-7.76c0,2.36,0.78,5.61,3.37,5.61c2.14,0,2.95-1.84,3.3-3.21
			c0.11-0.43,0.56-0.68,0.98-0.56L76.73,52.6z M68.24,50.12h5.63c0-2.07-0.51-5.09-3.01-4.95C68.89,45.27,68.24,47.76,68.24,50.12z"
			/>
		<path class="st6" d="M89.05,56.44h-0.4c-0.98,0-1.77-0.79-1.77-1.77v-6.46c0-1.12-0.86-2.61-2.54-2.61c-1.5,0-2.59,1.91-2.59,2.61
			l0.01,8.23h-2.13V45.09h0.87c0.69,0,1.24,0.55,1.25,1.24l0,0.18c0.54-0.64,1.69-1.59,3.22-1.59c3.03,0,4.08,2.18,4.08,3.58
			L89.05,56.44z"/>
		<path class="st6" d="M118.33,45.05l-4.68,11.34h-0.36l-2.76-6.58l-2.73,6.62h-0.36l-4.75-11.34h2.29l3.49,8.6l1.84-4.4l-1.78-4.24
			h2.29l0.62,1.53l0.62-1.49h0.42l-0.83,2.01l2.66,6.55l3.6-8.6H118.33z"/>
		<path class="st6" d="M130.88,50.59c0,1.65-0.56,3.07-1.65,4.22c-1.09,1.14-2.4,1.72-3.91,1.72c-1.5,0-2.79-0.56-3.83-1.66
			c-1.03-1.09-1.55-2.46-1.55-4.07c0-1.65,0.53-3.07,1.56-4.22c1.04-1.15,2.38-1.73,4-1.73c1.61,0.01,2.91,0.54,3.86,1.58
			C130.32,47.46,130.83,48.87,130.88,50.59z M128.78,50.67c0-1-0.15-1.92-0.45-2.74c-0.29-0.82-0.7-1.49-1.2-1.98
			c-0.4-0.39-0.85-0.64-1.33-0.72c-0.13-0.02-0.27-0.04-0.4-0.04c-0.64,0-1.22,0.26-1.73,0.76c-0.5,0.49-0.91,1.16-1.2,1.98
			c-0.29,0.82-0.44,1.74-0.44,2.74c0,1,0.15,1.93,0.45,2.75c0.29,0.82,0.7,1.49,1.2,1.98c0.4,0.39,0.85,0.64,1.33,0.72
			c0.13,0.02,0.27,0.04,0.4,0.04c0.63,0,1.22-0.25,1.73-0.76c0.5-0.49,0.91-1.16,1.2-1.98C128.63,52.6,128.78,51.68,128.78,50.67z"
			/>
		<path class="st6" d="M143.39,56.44h-0.4c-0.98,0-1.77-0.79-1.77-1.77v-6.46c0-1.12-0.86-2.61-2.54-2.61
			c-1.5,0-2.59,1.91-2.59,2.61l0.01,8.23h-2.13V45.09h0.87c0.69,0,1.24,0.55,1.25,1.24l0,0.18c0.54-0.64,1.69-1.59,3.22-1.59
			c3.03,0,4.08,2.18,4.08,3.58L143.39,56.44z"/>
		<path class="st6" d="M156.43,39.57V56.4c-2.12,0-2.25-1.42-2.25-1.42l-0.25,0.33c-0.07,0.09-0.16,0.19-0.26,0.3
			c-0.23,0.24-0.56,0.45-0.98,0.63c-0.42,0.18-0.96,0.28-1.6,0.28c-2.55,0-4.67-2.48-4.67-5.88c0-3.45,1.98-5.8,4.51-5.8
			c0.59,0,1.19,0.11,1.77,0.32c0.49,0.18,0.91,0.45,1.25,0.8l0.34,0.35v-6.75H156.43z M154.28,46.83l-0.05-0.06
			c-0.27-0.3-0.65-0.6-1.08-0.84c-0.48-0.28-0.98-0.42-1.48-0.42h-0.02c-1,0-1.76,0.47-2.33,1.42c-0.53,0.92-0.8,2.16-0.8,3.68
			c-0.01,1.54,0.3,2.83,0.9,3.84c0.6,1,1.35,1.51,2.25,1.51l0.12,0c0.59-0.05,1.16-0.34,1.7-0.87c0.51-0.56,0.77-1.29,0.79-2.16
			V46.83z"/>
		<path class="st6" d="M170.17,52.6c-0.21,0.64-1.28,3.9-5.22,3.9c-1.5,0-2.79-0.56-3.83-1.66c-1.03-1.09-1.55-2.88-1.55-4.49
			c0-2.25,1.44-5.54,4.94-5.54c4.48,0,4.92,4.79,4.92,5.72h-7.76c0,2.36,0.78,5.61,3.37,5.61c2.14,0,2.95-1.84,3.3-3.21
			c0.11-0.43,0.56-0.68,0.98-0.56L170.17,52.6z M161.67,50.12h5.63c0-2.07-0.51-5.09-3.01-4.95
			C162.32,45.27,161.67,47.76,161.67,50.12z"/>
		<path class="st6" d="M180.49,45.66l-1.28,1.34c-0.11,0.13-0.31,0.09-0.38-0.06c-0.4-0.81-0.91-1.21-1.57-1.21
			c-0.14,0-0.29,0.02-0.44,0.06c-1.09,0.28-1.44,1.53-1.47,1.67c-0.11,0.41-0.16,0.86-0.16,1.34l-0.02,7.64h-2.09V45.09h2.12v1.55
			l0.36-0.49c0.64-0.86,1.52-1.3,2.63-1.3C179.24,44.87,180.02,45.14,180.49,45.66z"/>
		<path class="st6" d="M190.43,53.21c0,1.04-0.73,3.24-3.76,3.24c-0.02,0-3.39,0-3.39,0l0.31-1.92h0.32
			c0.36,1.27,1.59,1.49,2.66,1.49c1.13-0.04,2.08-0.51,2.33-1.51c0.19-0.73-0.11-1.32-0.32-1.56c-0.21-0.26-0.57-0.5-1.05-0.71
			c-0.63-0.27-1.21-0.49-1.71-0.65c-0.65-0.24-1.12-0.42-1.43-0.55c-1.3-0.65-1.96-1.68-1.93-3.06c0.03-0.91,0.35-1.41,0.94-2.01
			c0.55-0.51,1.47-0.87,2.93-0.87h2.65l0.29,1.66l-0.33,0.01c-0.66-0.7-2.43-1.87-3.94-1.04c-1.13,0.62-1.39,2.24-0.63,2.98
			c0.5,0.48,0.95,0.6,2.07,1.02C187.48,50.07,190.43,51.07,190.43,53.21z"/>
	</g>
	<g>
		<g>
			<g>
				<g>
					<polygon class="st7" points="12.39,47.78 10.5,49.66 12.39,51.55 12.39,51.55 					"/>
				</g>
				<g>
					<polygon class="st7" points="19.92,49.66 18.44,48.14 15.21,59.08 15.21,59.08 					"/>
				</g>
				<g>
					
						<rect x="14.27" y="44.01" transform="matrix(-1.836970e-16 1 -1 -1.836970e-16 63.9319 33.5081)" class="st6" width="1.88" height="9.42"/>
				</g>
				<g>
					
						<rect x="14.27" y="44.01" transform="matrix(0.7071 0.7071 -0.7071 0.7071 36.241 2.4096)" class="st6" width="1.88" height="1.88"/>
				</g>
				<g>
					
						<rect x="17.68" y="44.04" transform="matrix(-1.836970e-16 1 -1 -1.836970e-16 63.9617 26.0009)" class="st6" width="2.61" height="1.88"/>
				</g>
				<g>
					
						<rect x="10.14" y="44.04" transform="matrix(-1.836970e-16 1 -1 -1.836970e-16 56.4247 33.538)" class="st6" width="2.61" height="1.88"/>
				</g>
				<g>
					<rect x="11.91" y="44.95" class="st6" width="6.6" height="1.33"/>
				</g>
			</g>
			<g>
				<g>
					<path class="st6" d="M15.2,52.66c-0.62,0-1.12-0.5-1.12-1.12s0.5-1.12,1.12-1.12c0.62,0,1.12,0.5,1.12,1.12
						S15.82,52.66,15.2,52.66z M15.2,50.53c-0.56,0-1.02,0.46-1.02,1.02s0.46,1.02,1.02,1.02c0.56,0,1.02-0.46,1.02-1.02
						S15.77,50.53,15.2,50.53z"/>
				</g>
				<g>
					<path class="st6" d="M16.18,51.12C16.18,51.12,16.18,51.12,16.18,51.12c-0.01-0.02-0.02-0.05-0.03-0.07c0,0-0.01,0-0.01,0
						c0,0-0.01,0.01-0.01,0.01s-0.01,0-0.01,0.01c0,0-0.01,0-0.01,0l-0.01,0l0.01,0.02l0,0.01l0.01,0.01c0,0,0,0,0.01,0
						c0.01,0,0.02,0,0.02,0l0,0C16.17,51.12,16.17,51.12,16.18,51.12C16.18,51.12,16.17,51.12,16.18,51.12L16.18,51.12z"/>
				</g>
				<g>
					<path class="st6" d="M14.9,50.72L14.9,50.72C14.91,50.72,14.9,50.72,14.9,50.72L14.9,50.72z"/>
				</g>
				<g>
					<path class="st6" d="M15.21,51.82c0,0-0.04-0.05-0.04-0.05l-0.03-0.01l-0.07-0.02l-0.03-0.01l-0.03,0.01
						c0,0-0.02,0.01-0.03,0.01c-0.01,0-0.03-0.01-0.03-0.02c0,0,0-0.01,0-0.01c0,0,0.01-0.02,0.02-0.02c0,0,0-0.01,0-0.02
						c0-0.01,0.01-0.03,0-0.04c-0.01-0.01-0.08-0.03-0.08-0.03s-0.01-0.02-0.02-0.03c0,0-0.05-0.02-0.05-0.02s-0.01-0.01-0.01-0.01
						c0,0-0.04-0.02-0.04-0.02l-0.06,0c0,0,0.01-0.01-0.01-0.01c-0.02,0-0.03,0.01-0.03,0.01s0,0.01-0.01,0.02
						c-0.01,0.01-0.03-0.01-0.03-0.01s0-0.01-0.01,0c-0.01,0.01-0.02,0-0.02,0.01c0,0.01-0.01,0.01-0.01,0.01s-0.02-0.02-0.03-0.02
						c0,0-0.03,0.01-0.03,0.01s0,0-0.01,0c-0.01,0-0.04-0.03-0.04-0.03s0-0.01,0-0.01c0,0,0-0.04,0-0.04l-0.01-0.02
						c0,0-0.02,0-0.02,0c0,0-0.04-0.01-0.04-0.02c0-0.01,0.01-0.01,0.01-0.02c0-0.01,0-0.04,0-0.04l0.01-0.01c0,0-0.02-0.01-0.03,0
						c0,0.01-0.02,0.02-0.02,0.03c0,0-0.04,0.01-0.06,0.01c0,0,0,0,0-0.01c-0.01-0.02-0.02-0.06-0.02-0.06c0,0-0.02-0.02,0-0.03
						c0.02-0.02,0.02-0.02,0.02-0.03c0,0,0.03-0.02,0.03-0.02c0.01,0,0.01-0.01,0.02-0.01s0.02,0,0.03,0c0,0,0.01,0,0.01,0
						c0.01,0,0,0,0.02-0.01c0.02-0.01,0.02-0.01,0.03,0c0.01,0.01,0.04,0,0.04,0s0-0.02,0.01,0.01c0.01,0.02,0.01,0.02,0.01,0.03
						c0,0.01,0.02,0.02,0.02,0.02s0,0.02,0.01-0.01c0-0.03,0-0.03,0-0.04c0-0.01,0-0.03,0-0.04c0,0,0.04-0.05,0.04-0.05
						s0.02-0.02,0.03-0.03c0.01-0.01,0.02-0.03,0.02-0.03s0.01-0.03,0.02-0.03c0,0,0.02-0.01,0.03-0.01c0.01,0,0.03-0.01,0.04-0.02
						c0.01-0.01,0.01-0.02,0.02-0.02c0.01,0,0.01-0.01,0.02-0.02c0.02-0.01,0.02-0.01,0.04-0.01c0.02-0.01,0.02-0.01,0.02-0.01
						s0,0.01,0.01,0.02c0,0.01-0.01,0.01,0,0.01c0.01,0,0.02,0,0.03-0.01c0.01-0.01,0,0,0.01-0.01c0.01,0,0.01-0.03,0.01-0.03
						s0.01-0.01,0-0.02c-0.01-0.01-0.01-0.01-0.02-0.01c-0.01,0-0.03,0.01-0.03,0c0-0.01,0.04-0.03,0.04-0.03s0.02,0,0.04,0
						c0.02,0,0.05,0,0.06-0.01c0.01-0.01,0.05-0.02,0.05-0.02s0.01-0.02,0-0.03c-0.01-0.01-0.02,0-0.03-0.02
						c-0.01-0.02-0.03-0.06-0.03-0.06c0,0-0.03-0.01-0.03-0.01c0,0-0.02,0-0.02,0l-0.04-0.02c0,0-0.01,0-0.01,0.01
						c-0.03,0.02-0.03,0.01-0.03,0.02c0,0.01-0.02,0.02-0.02,0.03c-0.01,0.01-0.01,0.01-0.01,0.02c-0.01,0.01-0.01,0.02-0.02,0.03
						c-0.01,0.01-0.05,0.05-0.05,0.05s-0.02,0-0.02-0.02c0-0.02-0.01-0.04-0.01-0.04c0,0-0.02-0.02-0.02-0.02s-0.04,0-0.04-0.01
						c0-0.01-0.01-0.01-0.01-0.02c0-0.01,0-0.02,0-0.03c0.01-0.01,0.01-0.02,0.02-0.02c0.01,0,0.01-0.01,0.03-0.01
						c0.02,0,0.03,0,0.04-0.01c0.01-0.01,0.01-0.02,0.03-0.02c0.01,0,0.02,0,0.03-0.01c0.01,0,0.03-0.01,0.03-0.01
						c0.01,0,0.02-0.01,0.02-0.01c0.01,0,0.01-0.01,0.01-0.01l0.01-0.04c0,0-0.01,0-0.03,0.01c-0.03,0.01-0.02,0.04-0.04,0.02
						c-0.02-0.02-0.04-0.04-0.04-0.04c0,0-0.01,0-0.02,0.01c-0.01,0.01-0.01,0.01-0.02,0.02c-0.01,0.01-0.01,0.01-0.03,0.01
						c-0.01,0-0.04,0-0.06,0c-0.23,0.15-0.4,0.38-0.47,0.65c0,0.01,0.01,0.01,0.01,0.02c0,0.01,0.04,0.05,0.04,0.05
						s-0.02,0.03,0,0.04c0.02,0.01,0.01,0,0.04,0.02c0.02,0.02,0.04,0.02,0.04,0.02s-0.04-0.01,0.02,0.01
						c0.06,0.02,0.06,0.02,0.06,0.02c0,0,0-0.02,0.01,0c0.01,0.02,0,0.01,0.02,0.03c0.02,0.01,0.05,0.04,0.06,0.04
						c0.01,0,0.02,0.01,0.02,0.01s0.04,0.03,0.04,0.03c0,0,0.05,0.01,0.05,0.01s0.02-0.01,0.03,0c0,0.01,0.01,0.02,0,0.03
						c0,0.01-0.02,0.05-0.02,0.05l-0.02,0.03l-0.02,0.03v0.03c0,0,0,0,0,0.01c0,0.01,0,0.04,0,0.04l0.02,0.02
						c0,0,0.01,0.02,0.01,0.03c0,0.01,0.01,0.03,0.02,0.03c0,0.01,0.01,0.01,0.01,0.01s0.01,0.01,0.02,0.03
						c0,0.01,0.02,0.02,0.02,0.02c0,0.01,0,0,0,0.01c0.01,0.01,0,0,0.02,0.01c0.01,0.01-0.01-0.02,0.01,0.01
						C14.69,52,14.69,52,14.69,52s0.01,0,0.02,0.03c0.01,0.03,0.01,0.04,0.01,0.04v0.07c0,0,0,0.02,0,0.03c0,0.01-0.01,0.05,0,0.06
						c0,0.01,0,0.01,0.01,0.03c0,0.02,0.01,0.03,0.01,0.05c0,0.02,0,0.02,0,0.03c0,0.01-0.01,0.04,0,0.06
						c0.01,0.02-0.01,0,0.02,0.03c0.03,0.03,0.04,0.02,0.04,0.04c0,0.01,0,0.02,0.01,0.04c0,0.01,0,0.02,0,0.02
						c0.01,0,0.01,0,0.02,0.01c0,0,0,0,0,0c0.04,0,0.05-0.01,0.05-0.01s0-0.01,0.01-0.02c0,0,0.01-0.03,0.01-0.03
						c0-0.01-0.01-0.04-0.01-0.04l-0.01-0.02c0,0-0.01-0.01,0-0.03c0.01-0.01,0.02-0.04,0.02-0.04s-0.01-0.01,0-0.02
						c0.01,0,0.02-0.01,0.02-0.01c0,0,0.01-0.02,0.01-0.02c0,0,0.01-0.02,0-0.03c-0.01-0.01-0.01-0.01-0.01-0.02
						c0.01,0,0.03-0.02,0.03-0.02s0.01,0,0.01,0c0.01,0,0.02-0.02,0.03-0.03c0.01-0.01,0.01-0.02,0.02-0.02c0,0,0.01-0.03,0.01-0.04
						c0-0.02,0-0.02,0.01-0.02c0.01,0,0.01-0.01,0.02-0.01c0.01,0,0.01,0,0.02-0.01c0.01-0.01,0-0.01,0.02-0.02
						c0.02,0,0.03-0.01,0.03-0.01c0,0,0.01-0.01,0.02-0.01c0.01-0.01,0.01-0.02,0.02-0.02c0.01-0.01,0.01-0.02,0.01-0.02
						c0,0-0.01-0.01,0-0.02c0.01-0.01,0-0.01,0.02-0.03c0.02-0.03,0.02-0.06,0.03-0.06c0.01,0,0.02-0.06,0.02-0.06
						S15.21,51.83,15.21,51.82L15.21,51.82z"/>
				</g>
				<g>
					<path class="st6" d="M14.68,50.63c0.01-0.01,0.01-0.02,0.01-0.02s0,0,0,0c-0.01,0.01-0.02,0.01-0.03,0.02
						C14.67,50.63,14.67,50.63,14.68,50.63L14.68,50.63z"/>
				</g>
				<g>
					<path class="st6" d="M14.74,50.58C14.74,50.58,14.74,50.59,14.74,50.58C14.75,50.59,14.74,50.59,14.74,50.58
						c0.01,0.01,0.02,0.01,0.02,0.01l0.01,0l0-0.01h0.01l0.01-0.01v-0.01v-0.01c0,0,0,0,0,0C14.77,50.57,14.75,50.58,14.74,50.58
						L14.74,50.58L14.74,50.58z"/>
				</g>
				<g>
					<polygon class="st6" points="14.84,50.56 14.83,50.56 14.82,50.56 14.81,50.56 14.81,50.56 14.8,50.58 14.8,50.58 14.81,50.58 
						14.81,50.58 14.82,50.58 14.83,50.57 14.84,50.57 14.84,50.57 14.84,50.56 14.84,50.56 14.84,50.56 					"/>
				</g>
				<g>
					<path class="st6" d="M14.87,50.55c0.01,0,0.01,0,0.01,0s0,0,0.01,0c0.01,0,0.01,0,0.01,0s0,0,0.01,0c0,0,0.01,0,0.01,0
						s0.01,0,0.01,0c0,0,0.01,0,0.01,0c0,0,0.01,0,0.01,0c0,0,0.01,0,0.01,0h0h0.01c0,0,0.01,0,0.01,0c0,0,0,0,0.01,0
						c0,0,0.01-0.01,0.01-0.01s0,0,0,0c-0.01,0,0,0-0.01,0c-0.01,0-0.02,0-0.02,0s0,0-0.01,0c0,0,0,0-0.01,0c-0.01,0-0.02,0-0.02,0
						h-0.01l-0.01,0c0,0,0,0,0,0c0,0,0,0,0,0l0,0l0,0c0,0-0.01,0-0.01,0c0,0,0,0.01-0.01,0.01C14.88,50.54,14.88,50.54,14.87,50.55
						C14.87,50.54,14.88,50.55,14.87,50.55C14.87,50.55,14.87,50.55,14.87,50.55L14.87,50.55z"/>
				</g>
				<g>
					<path class="st6" d="M15.06,50.67C15.07,50.67,15.07,50.67,15.06,50.67c0-0.01,0-0.01,0-0.01c0,0-0.01,0-0.01-0.01
						c0,0-0.01-0.01-0.01-0.01s0,0,0-0.01c0,0,0-0.01,0-0.01s0-0.01,0-0.01c-0.01,0-0.02-0.01-0.02-0.01l-0.01-0.01c0,0,0,0,0,0
						c0,0,0-0.01-0.01-0.01c-0.01,0,0,0-0.01,0c-0.01,0-0.02,0-0.02,0l-0.01,0c0,0,0,0-0.01-0.01c0,0-0.01-0.01-0.01-0.01
						c0,0-0.01,0-0.01,0c0,0,0,0-0.01,0c-0.01,0-0.01,0-0.01,0l-0.01,0l0-0.01l-0.01,0h0h0c0,0,0,0-0.01,0c0,0-0.01,0.01-0.01,0.01
						s0,0,0,0c0,0,0,0-0.01,0c0,0,0,0,0,0c0,0,0,0.01,0,0.01c0,0,0,0,0,0c0,0,0,0,0,0.01c0,0,0,0,0,0c0,0,0,0,0,0h0c0,0,0,0,0.01,0
						c0,0,0.01,0,0.01,0c0,0,0.01,0,0.01,0h0c0,0-0.01,0,0,0c0.01,0,0.01,0,0.01,0s0,0,0,0c0.01,0,0.01,0,0.01,0s0,0,0.01,0
						c0,0,0.01,0,0.01,0c0,0,0,0,0.01,0c0,0,0.01,0,0.01,0c0,0,0.01,0,0.01,0.01c0,0,0,0,0.01,0c0,0,0,0,0,0c0,0,0,0,0.01,0.01
						c0,0,0,0,0.01,0.01c0,0,0.01,0,0.01,0.01c0,0,0,0,0,0s0.01,0,0.01,0c0,0,0,0,0,0c0,0.01,0,0,0,0.01c0,0.01,0,0,0,0.01
						c-0.01,0-0.01,0-0.01,0c-0.01,0-0.03,0-0.03,0c0,0-0.01,0-0.01,0.01c0,0.01-0.01,0,0,0.01c0,0.01,0,0,0,0.01c0,0,0,0,0.01,0.01
						c0,0.01,0,0,0.01,0.01c0.01,0.01,0.02,0.01,0.02,0.01c0,0,0.02,0,0.02,0l0,0c0,0,0.01,0,0,0c-0.01,0-0.01-0.01-0.01-0.01l0,0
						c0,0,0,0,0,0c0,0,0.01,0,0.01,0s0,0,0,0c0,0,0,0,0,0c0,0,0.01,0,0.01,0c0,0,0,0,0-0.01c0,0,0-0.01,0-0.01c0,0,0-0.01,0-0.01
						c0,0,0-0.01,0-0.01c0,0,0,0,0,0c0.01,0,0.01,0,0.01,0s0,0,0.01,0c0,0,0.01,0,0.01,0s0,0,0,0
						C15.05,50.67,15.05,50.67,15.06,50.67C15.06,50.67,15.06,50.67,15.06,50.67L15.06,50.67z"/>
				</g>
				<g>
					<path class="st6" d="M15,50.5C15,50.51,14.99,50.51,15,50.5c-0.01,0.01-0.01,0.01-0.01,0.01c0,0-0.01,0-0.01,0l0,0.01
						c0,0,0,0,0,0c0,0,0,0,0,0c0,0,0,0-0.01,0c-0.01,0-0.01,0-0.01,0c0,0,0,0-0.01,0c0,0,0,0,0,0c0,0-0.01,0-0.01,0
						c0,0,0.01,0.01,0.02,0c0,0,0.01,0,0.01,0l0.01,0c0,0,0,0,0,0c0,0,0.01,0,0.01,0s0,0,0.01,0c0,0,0.01,0,0.01,0s0,0,0.01,0
						c0,0,0.01,0,0.01,0c0,0,0-0.01,0.01-0.01c0,0,0.01,0,0.01,0c0,0,0,0,0.01,0c0.01,0,0.01,0,0.01,0c0,0,0.01,0,0.01,0
						c0,0,0.01,0,0.01,0c0,0,0.01-0.01,0.01-0.01c0,0,0.01,0,0.01,0c0,0,0.01,0,0.01,0c0,0,0,0,0.01,0c0.01,0,0.03-0.01,0.03-0.01
						s0.01,0,0.01,0c0,0,0,0,0,0c-0.03,0-0.07,0-0.1,0.01c0,0.01-0.01,0.01-0.01,0.01c0,0-0.02,0-0.02,0c0,0,0,0,0,0l0,0
						c0,0,0,0,0,0c0,0,0,0,0,0s0,0,0,0C15.01,50.49,15.01,50.5,15,50.5C15,50.5,15.01,50.5,15,50.5L15,50.5z"/>
				</g>
				<g>
					<path class="st6" d="M14.62,51.36c0-0.01,0,0-0.01-0.01c-0.01-0.01-0.01,0-0.01-0.01c0,0-0.02,0-0.02,0s-0.01,0-0.01,0
						c0,0-0.02,0-0.03,0c0,0-0.02,0.01-0.02,0.01l-0.01,0v0l0.01,0c0,0,0,0,0.01,0c0.01,0,0.01,0,0.01,0l0.01,0l0.01,0
						c0,0,0.07,0.04,0.08,0.03c0,0,0.01,0,0.01,0v-0.01c0,0,0,0,0,0C14.63,51.38,14.63,51.37,14.62,51.36
						C14.62,51.36,14.62,51.37,14.62,51.36L14.62,51.36z"/>
				</g>
				<g>
					<path class="st6" d="M14.67,51.41L14.67,51.41l-0.02,0.01c0,0,0,0,0.01,0C14.66,51.41,14.66,51.41,14.67,51.41
						C14.67,51.41,14.67,51.41,14.67,51.41c0.01,0.01,0.02,0,0.02,0c0,0,0.01,0,0.01,0c0,0,0.01,0,0.02,0c0,0,0,0,0.01,0
						c0.01,0,0.01,0,0.02-0.01c0.01,0,0,0,0-0.01c0-0.01,0,0-0.01,0c-0.01,0-0.01,0-0.01,0c0,0-0.01,0-0.02,0c-0.01,0,0,0,0,0
						s-0.01,0-0.01,0c0,0-0.01,0-0.01,0v0.01l0,0.01L14.67,51.41L14.67,51.41L14.67,51.41z"/>
				</g>
				<g>
					<path class="st6" d="M15.13,50.5c-0.01,0-0.02,0.01-0.02,0.01v0.01h0.01c0,0,0.05-0.01,0.06,0c0.01,0,0,0,0,0.01
						c0,0.01,0.01,0.02,0.01,0.02l0.03,0.01l0.02,0.01c0,0,0,0,0,0c0,0.01,0,0,0,0.01c0,0.01-0.01,0.01-0.01,0.01v0.01
						c0,0,0.01,0,0,0.01c0,0.01-0.01,0.01-0.01,0.01c0,0-0.01,0-0.01,0.01c0,0-0.01,0.01-0.01,0.01s-0.01,0-0.01,0.01
						c0,0,0,0.01,0,0.01s-0.01,0.01-0.01,0.01c-0.01,0-0.01,0.02-0.01,0.03c0,0.01,0.01,0.03,0.01,0.03s0.01,0.01,0.02,0.01
						c0.01,0,0.06,0,0.06-0.01c0-0.01,0.03-0.01,0.03-0.01s0,0,0.01-0.01c0.01-0.01,0.01-0.01,0.02-0.02c0.01-0.02,0.01,0,0.01,0
						s0.03,0,0.05-0.01c0.02-0.01,0.01,0,0.01,0s0.02-0.01,0.03-0.02c0,0,0.04-0.01,0.06-0.02c0.01-0.01,0.01,0,0.01,0
						c0.01,0,0.01,0,0.01,0s0.01,0,0.02-0.01c0.01-0.01-0.01-0.01-0.01-0.01s-0.01-0.01,0-0.01c0,0,0.01-0.01,0.01-0.01v-0.01
						l0.01-0.01c0,0,0.01-0.01,0.04-0.02c0.02-0.01,0.02-0.01,0.02-0.01c-0.11-0.04-0.24-0.07-0.36-0.07
						c-0.01,0-0.01,0.02-0.01,0.02c0,0.01-0.03,0.01-0.03,0.01S15.14,50.51,15.13,50.5L15.13,50.5z"/>
				</g>
				<g>
					<path class="st6" d="M15.65,50.83C15.66,50.82,15.65,50.83,15.65,50.83L15.65,50.83c-0.01-0.01-0.01-0.01-0.01-0.01
						c0,0-0.01,0-0.01,0c0,0-0.01,0-0.01-0.01c0,0-0.01,0-0.01,0l-0.02,0.01h-0.02l-0.01,0.01h0.01l0.01,0l0.01,0h0.01h0.01
						c0,0,0.01,0,0.01,0c0,0,0.01,0,0.01,0l0-0.01h0.01C15.63,50.84,15.64,50.84,15.65,50.83L15.65,50.83z"/>
				</g>
				<g>
					<path class="st6" d="M15.7,50.89c0,0-0.02,0.01-0.02,0.01h0.02l0.01,0c0.01,0,0.02,0,0.02,0h0.01h0.01l0.01,0v-0.01v-0.01
						l0.01-0.01l-0.01-0.01l-0.02-0.02l0-0.01l-0.01-0.01l0-0.01h-0.01c0,0,0,0,0-0.01c0,0,0-0.01,0-0.01v-0.01l-0.01,0
						c0,0,0-0.01-0.01,0c0,0.01,0,0,0,0.01c0,0.01,0,0,0,0.01c0,0,0,0,0,0v0.01l0.01,0.01l0,0.01v0v0.01v0.01h-0.01v0H15.7v0.01v0
						v0.01h0.01l0.01,0L15.7,50.89C15.71,50.89,15.7,50.89,15.7,50.89L15.7,50.89z"/>
				</g>
				<g>
					<path class="st6" d="M15.85,50.7c-0.01,0-0.01,0-0.01,0.01c0,0.01-0.02,0.01-0.01,0.02c0,0.01,0,0,0,0.01c0,0.01,0,0.01,0,0.02
						c0,0.01,0,0.01,0.01,0.01c0,0,0.01,0.01,0.01,0.01s0,0,0.02,0c0.01,0,0.02-0.01,0.03-0.01c0.01,0,0.01,0,0.01,0.01
						c0,0.01,0,0,0.01,0.02c0,0.01,0,0.02,0.01,0.02c0.01,0.01,0.01,0.01,0.02,0.01c0.01,0,0.01-0.01,0.02-0.01
						c0,0,0.01-0.01,0.01-0.01C15.93,50.76,15.89,50.73,15.85,50.7C15.86,50.7,15.85,50.7,15.85,50.7L15.85,50.7z"/>
				</g>
				<g>
					<path class="st6" d="M16.22,51.21C16.21,51.21,16.21,51.21,16.22,51.21c-0.01,0-0.01,0-0.02,0c0,0-0.02,0-0.03,0
						c0,0-0.04-0.02-0.04-0.02c-0.01,0-0.03,0-0.03,0c-0.01,0-0.02-0.01-0.02-0.01l-0.02-0.01l-0.03,0c0,0,0,0.01,0,0.01
						c0,0.01,0.01,0.01,0,0.02c-0.01,0.01-0.01,0.01-0.02,0.01c0,0-0.01,0-0.01,0c0,0-0.03-0.01-0.04-0.01
						c-0.01,0-0.02-0.01-0.02-0.01v-0.01l-0.02-0.01c0,0-0.01,0-0.01,0c-0.01,0-0.02-0.01-0.02-0.01l0-0.02v-0.01l-0.01-0.01
						c0,0,0-0.01-0.01-0.01c-0.01,0-0.03,0.01-0.03,0.01l-0.01,0h-0.02c0,0,0.01,0-0.01,0c-0.02,0-0.05,0-0.05,0
						c-0.01,0.01-0.04,0.03-0.04,0.03s-0.03,0-0.03,0c0,0-0.02-0.01-0.02-0.01s0,0.01-0.01,0.02c-0.01,0.01-0.01,0.01-0.01,0.01
						l-0.02,0.02l-0.02,0.01c0,0.01,0.01,0.02,0,0.03c-0.01,0-0.02,0.02-0.02,0.02h-0.01c0,0-0.01,0.01-0.01,0.01
						c0,0.01-0.01,0.01-0.01,0.01s-0.01,0-0.01,0.01c0,0.01-0.01,0.01-0.01,0.01l-0.02,0.03c0,0,0.01,0,0,0.01
						c-0.01,0.01-0.02,0.02-0.02,0.03c0,0.01,0-0.01,0,0.01c0,0.02-0.01,0.02,0,0.03c0.01,0.01,0.01,0.01,0.01,0.02
						c0,0.01,0,0.01,0,0.02c0,0.01,0,0-0.01,0.02c-0.01,0.02,0,0.03,0,0.04c0,0.01-0.01-0.01,0,0.01c0.01,0.02,0.02,0.02,0.03,0.03
						c0.01,0.01,0-0.02,0.01,0.01c0.01,0.03,0.01,0.02,0.02,0.04c0.01,0.02,0,0.02,0.01,0.03c0.01,0.01,0.01,0.01,0.02,0.02
						c0.01,0.01-0.02,0,0.01,0.01c0.03,0.01,0.02,0.01,0.05,0c0.02-0.01,0.01-0.01,0.02-0.01c0.02,0,0.03,0,0.03,0s0.01,0,0.01,0
						c0.01,0,0.03-0.01,0.03-0.01s-0.01-0.01,0.01-0.01c0.01-0.01,0,0,0.01-0.01c0.01,0,0.01,0,0.01,0s0.01,0,0.02,0
						c0.01,0.01,0.02,0.01,0.03,0.02c0.01,0.01-0.01-0.01,0.01,0.01c0.01,0.01,0.03,0.02,0.03,0.02s0-0.01,0.01,0
						c0.01,0.01,0.01,0.01,0.01,0.02c0,0.01,0-0.01,0,0.01c0,0.02-0.01,0.01-0.01,0.03c0,0.02,0,0,0,0.02c0.01,0.02,0,0,0.01,0.03
						c0.01,0.02-0.01,0.01,0.01,0.03c0,0,0.02,0.02,0.02,0.03c0,0.01,0,0,0,0.01c0,0.01,0,0.02,0.01,0.02c0,0.01,0,0.02,0.01,0.02
						c0,0.01,0,0.01,0,0.02c0,0.01,0,0.02,0,0.02c0,0.01,0,0.01-0.01,0.02c0,0.01-0.01,0-0.01,0.02c0,0.02-0.01,0.02,0,0.03
						c0,0.01,0,0.02,0.01,0.03c0,0.01,0.01,0.01,0.01,0.03c0.01,0.01,0.01,0.03,0.02,0.04c0,0.01,0,0,0.01,0.02
						c0,0.02,0,0.01,0.01,0.03c0,0.02,0,0.03,0.01,0.05c0.01,0.02,0.02,0.03,0.02,0.03c0,0,0-0.01,0.01,0.01
						c0.01,0.02,0,0.01,0.01,0.03c0.16-0.19,0.26-0.43,0.26-0.7C16.27,51.43,16.25,51.31,16.22,51.21L16.22,51.21z"/>
				</g>
				<g>
					<path class="st6" d="M16,50.84C16,50.84,16,50.84,16,50.84c-0.01,0-0.02,0-0.02,0c0,0-0.02,0-0.02,0c0,0-0.02,0-0.02,0
						c0,0-0.01,0-0.01,0c0,0-0.02-0.01-0.02-0.01H15.9c0,0-0.01,0-0.01,0c0,0-0.01,0-0.01,0c0,0-0.01,0.01-0.01,0.01c0,0,0,0-0.01,0
						c-0.01,0-0.01,0-0.01,0c-0.01,0-0.01,0-0.01,0.01c0,0-0.01,0.01-0.01,0.01c0,0,0,0-0.01,0.01c-0.01,0.01-0.01,0.01-0.02,0.01
						c0,0,0,0-0.01,0c-0.01,0-0.01,0.01-0.02,0.01c-0.01,0-0.01,0.01-0.02,0.01c-0.01,0-0.01,0.01-0.02,0.01
						c-0.01,0-0.01,0.01-0.02,0.01c-0.01,0-0.01,0-0.02,0c0,0-0.01,0-0.01,0c0,0,0,0.01,0.01,0.01c0,0,0.01,0,0.02,0.01c0,0,0,0,0,0
						c0.01,0.01,0,0.01,0,0.01c0,0,0,0,0,0.01c0,0.01,0,0.01,0,0.02c0,0,0,0,0,0c0,0,0,0,0,0c0,0,0,0,0,0c0,0.01,0.01,0,0,0.01
						c-0.01,0-0.01,0-0.01,0c0,0-0.01,0-0.01,0s-0.01,0-0.02,0c-0.01,0-0.02,0-0.02,0c-0.01,0,0,0-0.01,0c-0.01,0-0.01,0-0.01,0
						c0,0-0.01,0.01-0.01,0.01v0.01c0,0,0-0.01,0.01,0c0.01,0.01,0.02,0.01,0.02,0.01l0,0.01c0,0,0,0,0,0.01c0,0,0,0.01,0,0.01
						s0,0,0,0.01c0,0.01,0,0.02,0,0.02s0,0.01-0.01,0.01c-0.01,0-0.01,0.01-0.01,0.01c0,0,0.01,0.02,0.01,0.02h0.01h0.02h0.01
						c0,0,0.01,0,0.02,0c0.01,0,0.03-0.01,0.03-0.01s0.01-0.01,0.01-0.01c0,0,0.01-0.02,0.01-0.02l0-0.01l0.02-0.01l0.01-0.01
						l0.01-0.01v0L15.8,51h0.01c0,0,0-0.01,0.01,0c0.01,0.01,0.01,0.01,0.01,0.01l0.02,0L15.85,51l0.01-0.01L15.88,51l0.01,0.01
						c0,0,0,0,0.01,0c0,0,0.01,0,0.02,0.01c0.01,0,0.01,0.01,0.01,0.01l0.02,0.01c0,0,0,0,0.01,0c0,0,0.01,0.01,0.01,0.01v0.01
						c0,0,0,0,0.01,0.01c0,0,0,0,0,0.01c0,0,0,0,0,0s-0.01,0.01,0,0.01c0.01,0,0.01,0,0.01,0v-0.01v-0.01v-0.01c0,0,0.01,0,0.01,0
						c0,0,0,0,0,0l0.01,0c0,0,0-0.01-0.01-0.01c-0.01,0-0.03-0.01-0.03-0.01l-0.02-0.01l-0.01-0.01l-0.01-0.02l-0.01-0.01h-0.01
						l0-0.02c0,0,0.01,0,0.01,0c0,0,0.01,0.01,0.01,0.01S15.95,51,15.96,51c0.01,0,0.02,0.01,0.02,0.01L16,51.02c0,0-0.01,0,0,0
						c0.01,0.01,0.01,0.01,0.01,0.01s0,0,0.01,0.01c0,0.01,0,0.02,0,0.02c0,0,0,0,0,0s0,0.01,0.01,0.01s0.02,0,0.02,0
						s0.01,0.01,0.01,0.02c0,0,0.01,0,0,0c-0.01,0-0.01-0.01-0.01,0c0,0.01,0,0.02,0,0.02h0.01c0,0,0.01,0,0.01,0
						c0,0,0.01-0.01,0.01-0.01s0-0.01,0-0.01c0,0-0.01-0.01-0.01-0.01s0,0,0-0.01c0-0.01,0.01-0.02,0.02-0.02c0.01,0,0.02,0,0.02,0
						c0,0,0.01,0,0.01,0.01c0,0,0.02-0.01,0.02-0.01s0-0.01,0-0.01c0,0-0.01-0.01-0.01-0.01c0,0,0-0.01,0-0.02
						C16.09,50.95,16.05,50.89,16,50.84L16,50.84z"/>
				</g>
				<g>
					<path class="st6" d="M15.86,51.03c0-0.01-0.01-0.01-0.02-0.01l0-0.01c0,0-0.01,0.01-0.01,0.02c0,0.01,0,0.01,0,0.02
						c0,0.01-0.01,0.05,0.01,0.03c0.01-0.01,0-0.03,0.01-0.04C15.85,51.05,15.86,51.04,15.86,51.03L15.86,51.03z"/>
				</g>
				<g>
					<path class="st6" d="M15.03,50.92c0-0.01,0-0.02,0-0.02c0,0,0,0,0,0v0c-0.01,0.01-0.01,0.02-0.03,0.03
						c-0.01,0-0.03,0.01-0.01,0.02c0.01,0,0.02,0,0.02,0c0.01,0,0.01,0,0.02,0.01c0.01,0,0.03-0.01,0.02-0.02
						C15.05,50.93,15.04,50.92,15.03,50.92L15.03,50.92z"/>
				</g>
			</g>
		</g>
		<g>
			<g>
				<path class="st6" d="M15.21,64.54c-4.1,0-7.44-3.34-7.44-7.44V45.6c0-4.1,3.34-7.44,7.44-7.44c4.1,0,7.44,3.34,7.44,7.44v11.5
					C22.65,61.2,19.31,64.54,15.21,64.54z M15.21,38.99c-3.64,0-6.61,2.97-6.61,6.61v11.5c0,3.64,2.97,6.61,6.61,6.61
					s6.61-2.97,6.61-6.61V45.6C21.82,41.95,18.86,38.99,15.21,38.99z"/>
			</g>
		</g>
		<g>
			<circle class="st6" cx="15.02" cy="61.2" r="0.55"/>
		</g>
	</g>
	<g>
		<path class="st6" d="M71.87,63.03v-3.15h0.91c0.18,0,0.33,0.02,0.47,0.05c0.13,0.04,0.24,0.09,0.33,0.16
			c0.09,0.07,0.15,0.15,0.19,0.25c0.04,0.1,0.06,0.21,0.06,0.34c0,0.08-0.01,0.16-0.04,0.24c-0.03,0.08-0.07,0.15-0.13,0.21
			s-0.12,0.12-0.2,0.17c-0.08,0.05-0.17,0.08-0.27,0.11c0.25,0.04,0.44,0.12,0.57,0.25s0.2,0.3,0.2,0.5c0,0.13-0.02,0.25-0.07,0.36
			c-0.05,0.11-0.12,0.2-0.21,0.27c-0.09,0.07-0.2,0.13-0.33,0.17c-0.13,0.04-0.28,0.06-0.45,0.06H71.87z M72.09,61.35h0.68
			c0.15,0,0.27-0.02,0.37-0.06s0.19-0.09,0.25-0.15c0.07-0.06,0.11-0.13,0.15-0.21s0.05-0.16,0.05-0.24c0-0.21-0.07-0.37-0.2-0.48
			c-0.13-0.11-0.34-0.16-0.62-0.16h-0.68V61.35z M72.09,61.52v1.33h0.79c0.28,0,0.49-0.06,0.63-0.18c0.14-0.12,0.21-0.29,0.21-0.5
			c0-0.1-0.02-0.19-0.06-0.27c-0.04-0.08-0.09-0.15-0.16-0.2c-0.07-0.06-0.16-0.1-0.26-0.13c-0.1-0.03-0.22-0.04-0.35-0.04H72.09z"
			/>
		<path class="st6" d="M78.73,61.45c0,0.24-0.04,0.46-0.11,0.66c-0.07,0.2-0.17,0.37-0.31,0.51s-0.29,0.25-0.47,0.33
			c-0.18,0.08-0.39,0.11-0.61,0.11c-0.22,0-0.42-0.04-0.61-0.11c-0.18-0.08-0.34-0.19-0.47-0.33c-0.13-0.14-0.24-0.31-0.31-0.51
			c-0.07-0.2-0.11-0.42-0.11-0.66c0-0.24,0.04-0.46,0.11-0.66c0.07-0.2,0.18-0.37,0.31-0.51c0.13-0.14,0.29-0.25,0.47-0.33
			s0.39-0.12,0.61-0.12c0.22,0,0.43,0.04,0.61,0.11c0.18,0.08,0.34,0.19,0.47,0.33c0.13,0.14,0.23,0.31,0.31,0.51
			C78.69,60.99,78.73,61.21,78.73,61.45z M78.49,61.45c0-0.22-0.03-0.42-0.09-0.59c-0.06-0.17-0.15-0.32-0.26-0.44
			s-0.24-0.21-0.4-0.28c-0.16-0.06-0.33-0.1-0.52-0.1c-0.19,0-0.36,0.03-0.51,0.1c-0.16,0.06-0.29,0.16-0.4,0.28
			c-0.11,0.12-0.2,0.27-0.26,0.44c-0.06,0.18-0.09,0.37-0.09,0.59c0,0.22,0.03,0.42,0.09,0.59s0.15,0.32,0.26,0.44
			c0.11,0.12,0.25,0.21,0.4,0.28c0.15,0.06,0.33,0.1,0.51,0.1c0.19,0,0.36-0.03,0.52-0.1c0.16-0.06,0.29-0.16,0.4-0.28
			s0.2-0.27,0.26-0.44S78.49,61.67,78.49,61.45z"/>
		<path class="st6" d="M83.48,61.45c0,0.24-0.04,0.46-0.11,0.66c-0.07,0.2-0.17,0.37-0.31,0.51s-0.29,0.25-0.47,0.33
			c-0.18,0.08-0.39,0.11-0.61,0.11c-0.22,0-0.42-0.04-0.61-0.11c-0.18-0.08-0.34-0.19-0.47-0.33c-0.13-0.14-0.24-0.31-0.31-0.51
			c-0.07-0.2-0.11-0.42-0.11-0.66c0-0.24,0.04-0.46,0.11-0.66c0.07-0.2,0.18-0.37,0.31-0.51c0.13-0.14,0.29-0.25,0.47-0.33
			s0.39-0.12,0.61-0.12c0.22,0,0.43,0.04,0.61,0.11c0.18,0.08,0.34,0.19,0.47,0.33c0.13,0.14,0.23,0.31,0.31,0.51
			C83.44,60.99,83.48,61.21,83.48,61.45z M83.24,61.45c0-0.22-0.03-0.42-0.09-0.59c-0.06-0.17-0.15-0.32-0.26-0.44
			s-0.24-0.21-0.4-0.28c-0.16-0.06-0.33-0.1-0.52-0.1c-0.19,0-0.36,0.03-0.51,0.1c-0.16,0.06-0.29,0.16-0.4,0.28
			c-0.11,0.12-0.2,0.27-0.26,0.44c-0.06,0.18-0.09,0.37-0.09,0.59c0,0.22,0.03,0.42,0.09,0.59s0.15,0.32,0.26,0.44
			c0.11,0.12,0.25,0.21,0.4,0.28c0.15,0.06,0.33,0.1,0.51,0.1c0.19,0,0.36-0.03,0.52-0.1c0.16-0.06,0.29-0.16,0.4-0.28
			s0.2-0.27,0.26-0.44S83.24,61.67,83.24,61.45z"/>
		<path class="st6" d="M85.71,61.33h0.19c0.03,0,0.05,0,0.07,0c0.02,0,0.04-0.01,0.06-0.01c0.02-0.01,0.03-0.02,0.05-0.03
			s0.03-0.02,0.05-0.04l1.27-1.31c0.02-0.02,0.05-0.04,0.07-0.05c0.02-0.01,0.04-0.01,0.07-0.01h0.18l-1.38,1.41
			c-0.03,0.03-0.05,0.05-0.07,0.07c-0.02,0.02-0.05,0.03-0.07,0.04c0.03,0.01,0.06,0.02,0.08,0.04s0.05,0.04,0.08,0.07l1.45,1.51
			h-0.18c-0.04,0-0.07-0.01-0.08-0.02s-0.03-0.03-0.05-0.04l-1.33-1.36c-0.02-0.02-0.03-0.03-0.04-0.04
			c-0.01-0.01-0.03-0.02-0.05-0.03c-0.02-0.01-0.04-0.01-0.06-0.02c-0.02,0-0.05-0.01-0.09-0.01h-0.2v1.52h-0.23v-3.15h0.23V61.33z"
			/>
		<path class="st6" d="M89.87,63.03h-0.23v-3.15h0.23V63.03z"/>
		<path class="st6" d="M92.25,59.89c0.01,0,0.02,0.02,0.04,0.03l2.04,2.73c0-0.04-0.01-0.09-0.01-0.13v-2.64h0.2v3.15h-0.11
			c-0.03,0-0.06-0.01-0.08-0.04l-2.05-2.73c0,0.04,0.01,0.09,0.01,0.13v2.65h-0.2v-3.15h0.11C92.22,59.88,92.24,59.88,92.25,59.89z"
			/>
		<path class="st6" d="M98.01,62.88c0.11,0,0.21-0.01,0.3-0.02c0.09-0.01,0.17-0.03,0.25-0.05s0.15-0.05,0.22-0.08
			c0.07-0.03,0.14-0.07,0.21-0.11v-0.85h-0.61c-0.02,0-0.03,0-0.04-0.02c-0.01-0.01-0.02-0.02-0.02-0.04V61.6h0.87v1.12
			c-0.08,0.05-0.16,0.1-0.24,0.15c-0.08,0.04-0.18,0.08-0.27,0.11c-0.1,0.03-0.2,0.05-0.31,0.07c-0.11,0.02-0.23,0.02-0.37,0.02
			c-0.23,0-0.43-0.04-0.62-0.11c-0.19-0.08-0.35-0.18-0.48-0.32c-0.13-0.14-0.24-0.31-0.31-0.51s-0.11-0.42-0.11-0.66
			c0-0.24,0.04-0.46,0.11-0.66s0.18-0.37,0.32-0.51s0.3-0.25,0.5-0.32c0.2-0.08,0.41-0.11,0.66-0.11c0.12,0,0.23,0.01,0.33,0.02
			c0.1,0.02,0.2,0.04,0.28,0.07c0.09,0.03,0.17,0.07,0.25,0.12c0.08,0.05,0.15,0.1,0.22,0.16l-0.06,0.1
			c-0.01,0.02-0.03,0.03-0.06,0.03c-0.01,0-0.03,0-0.04-0.01c-0.02-0.01-0.05-0.03-0.1-0.06s-0.1-0.07-0.17-0.1
			c-0.07-0.04-0.16-0.07-0.27-0.1c-0.11-0.03-0.24-0.04-0.39-0.04c-0.2,0-0.39,0.03-0.55,0.1c-0.17,0.07-0.3,0.16-0.42,0.28
			c-0.12,0.12-0.21,0.27-0.27,0.44c-0.06,0.18-0.09,0.37-0.09,0.59c0,0.22,0.03,0.42,0.1,0.6c0.06,0.18,0.15,0.33,0.27,0.45
			c0.12,0.12,0.25,0.22,0.41,0.28C97.64,62.85,97.82,62.88,98.01,62.88z"/>
		<path class="st6" d="M105.62,63.03h-0.18c-0.02,0-0.04-0.01-0.05-0.02c-0.01-0.01-0.02-0.03-0.03-0.04l-0.37-0.91h-1.55
			l-0.37,0.91c-0.01,0.02-0.02,0.03-0.03,0.04c-0.02,0.01-0.03,0.02-0.05,0.02h-0.17l1.29-3.15h0.23L105.62,63.03z M103.51,61.89
			h1.41l-0.64-1.59c-0.01-0.02-0.02-0.05-0.03-0.09c-0.01-0.03-0.02-0.07-0.03-0.1c-0.01,0.04-0.02,0.07-0.03,0.1
			c-0.01,0.03-0.02,0.06-0.03,0.09L103.51,61.89z"/>
		<path class="st6" d="M107.48,59.89c0.01,0,0.02,0.02,0.04,0.03l2.04,2.73c0-0.04-0.01-0.09-0.01-0.13v-2.64h0.2v3.15h-0.11
			c-0.03,0-0.06-0.01-0.08-0.04l-2.05-2.73c0,0.04,0.01,0.09,0.01,0.13v2.65h-0.2v-3.15h0.11
			C107.45,59.88,107.47,59.88,107.48,59.89z"/>
		<path class="st6" d="M114.54,61.45c0,0.24-0.04,0.46-0.11,0.66c-0.07,0.19-0.18,0.36-0.31,0.5c-0.13,0.14-0.29,0.24-0.47,0.31
			c-0.18,0.07-0.39,0.11-0.61,0.11h-1.15v-3.15h1.15c0.22,0,0.43,0.04,0.61,0.11c0.18,0.07,0.34,0.18,0.47,0.31
			c0.13,0.14,0.23,0.3,0.31,0.5C114.5,60.99,114.54,61.21,114.54,61.45z M114.3,61.45c0-0.22-0.03-0.42-0.09-0.59
			c-0.06-0.17-0.15-0.32-0.26-0.44c-0.11-0.12-0.24-0.21-0.4-0.27c-0.16-0.06-0.33-0.09-0.52-0.09h-0.92v2.78h0.92
			c0.19,0,0.36-0.03,0.52-0.09c0.16-0.06,0.29-0.15,0.4-0.27c0.11-0.12,0.2-0.26,0.26-0.44C114.27,61.87,114.3,61.67,114.3,61.45z"
			/>
		<path class="st6" d="M120.59,59.88v0.19h-1.11v2.96h-0.23v-2.96h-1.11v-0.19H120.59z"/>
		<path class="st6" d="M122.63,61.61v1.42h-0.23v-3.15h0.8c0.36,0,0.64,0.07,0.81,0.21c0.18,0.14,0.27,0.35,0.27,0.62
			c0,0.12-0.02,0.23-0.06,0.33c-0.04,0.1-0.1,0.19-0.18,0.26s-0.17,0.14-0.28,0.18c-0.11,0.05-0.23,0.08-0.37,0.09
			c0.04,0.02,0.07,0.05,0.1,0.09l1.08,1.36h-0.2c-0.02,0-0.04,0-0.06-0.01c-0.02-0.01-0.03-0.02-0.05-0.04l-1.01-1.28
			c-0.03-0.03-0.05-0.06-0.08-0.07c-0.03-0.01-0.07-0.02-0.13-0.02H122.63z M122.63,61.44h0.55c0.14,0,0.26-0.02,0.38-0.05
			c0.11-0.03,0.2-0.08,0.28-0.14c0.08-0.06,0.13-0.14,0.17-0.23c0.04-0.09,0.06-0.19,0.06-0.3c0-0.22-0.07-0.39-0.22-0.5
			c-0.15-0.11-0.36-0.16-0.64-0.16h-0.58V61.44z"/>
		<path class="st6" d="M128.71,63.03h-0.18c-0.02,0-0.04-0.01-0.05-0.02c-0.01-0.01-0.02-0.03-0.03-0.04l-0.37-0.91h-1.55
			l-0.37,0.91c-0.01,0.02-0.02,0.03-0.03,0.04c-0.02,0.01-0.03,0.02-0.05,0.02h-0.17l1.29-3.15h0.23L128.71,63.03z M126.6,61.89
			h1.41l-0.64-1.59c-0.01-0.02-0.02-0.05-0.03-0.09c-0.01-0.03-0.02-0.07-0.03-0.1c-0.01,0.04-0.02,0.07-0.03,0.1
			c-0.01,0.03-0.02,0.06-0.03,0.09L126.6,61.89z"/>
		<path class="st6" d="M129.77,59.88h0.18c0.02,0,0.04,0.01,0.05,0.02s0.02,0.03,0.03,0.04l1.07,2.61c0.03,0.07,0.05,0.14,0.07,0.22
			c0.02-0.08,0.04-0.15,0.06-0.22l1.07-2.61c0.01-0.02,0.02-0.03,0.03-0.04c0.01-0.01,0.03-0.02,0.05-0.02h0.18l-1.3,3.15h-0.2
			L129.77,59.88z"/>
		<path class="st6" d="M136.16,59.88v0.19h-1.66v1.27h1.38v0.18h-1.38v1.31h1.66v0.19h-1.89v-3.15H136.16z"/>
		<path class="st6" d="M138.33,62.84h1.49v0.19h-1.72v-3.15h0.23V62.84z"/>
		<path class="st6" d="M141.89,63.03h-0.23v-3.15h0.23V63.03z"/>
		<path class="st6" d="M144.27,59.89c0.01,0,0.02,0.02,0.04,0.03l2.04,2.73c0-0.04-0.01-0.09-0.01-0.13v-2.64h0.2v3.15h-0.11
			c-0.03,0-0.06-0.01-0.08-0.04l-2.05-2.73c0,0.04,0.01,0.09,0.01,0.13v2.65h-0.2v-3.15h0.11
			C144.24,59.88,144.26,59.88,144.27,59.89z"/>
		<path class="st6" d="M150.03,62.88c0.11,0,0.21-0.01,0.3-0.02c0.09-0.01,0.17-0.03,0.25-0.05s0.15-0.05,0.22-0.08
			c0.07-0.03,0.14-0.07,0.21-0.11v-0.85h-0.61c-0.02,0-0.03,0-0.04-0.02c-0.01-0.01-0.02-0.02-0.02-0.04V61.6h0.87v1.12
			c-0.08,0.05-0.16,0.1-0.24,0.15c-0.08,0.04-0.18,0.08-0.27,0.11c-0.1,0.03-0.2,0.05-0.31,0.07c-0.11,0.02-0.23,0.02-0.37,0.02
			c-0.23,0-0.43-0.04-0.62-0.11c-0.19-0.08-0.35-0.18-0.48-0.32c-0.13-0.14-0.24-0.31-0.31-0.51s-0.11-0.42-0.11-0.66
			c0-0.24,0.04-0.46,0.11-0.66s0.18-0.37,0.32-0.51s0.3-0.25,0.5-0.32c0.2-0.08,0.41-0.11,0.66-0.11c0.12,0,0.23,0.01,0.33,0.02
			c0.1,0.02,0.2,0.04,0.28,0.07c0.09,0.03,0.17,0.07,0.25,0.12c0.08,0.05,0.15,0.1,0.22,0.16l-0.06,0.1
			c-0.01,0.02-0.03,0.03-0.06,0.03c-0.01,0-0.03,0-0.04-0.01c-0.02-0.01-0.05-0.03-0.1-0.06s-0.1-0.07-0.17-0.1
			c-0.07-0.04-0.16-0.07-0.27-0.1c-0.11-0.03-0.24-0.04-0.39-0.04c-0.2,0-0.39,0.03-0.55,0.1c-0.17,0.07-0.3,0.16-0.42,0.28
			c-0.12,0.12-0.21,0.27-0.27,0.44c-0.06,0.18-0.09,0.37-0.09,0.59c0,0.22,0.03,0.42,0.1,0.6c0.06,0.18,0.15,0.33,0.27,0.45
			c0.12,0.12,0.25,0.22,0.41,0.28C149.66,62.85,149.84,62.88,150.03,62.88z"/>
	</g>
</g>
</svg>
