<?xml version="1.0" encoding="utf-8"?>
<!-- Generator: Adobe Illustrator 25.0.0, SVG Export Plug-In . SVG Version: 6.00 Build 0)  -->
<svg version="1.1" id="Camada_1" xmlns="http://www.w3.org/2000/svg" xmlns:xlink="http://www.w3.org/1999/xlink" x="0px" y="0px"
	 viewBox="0 0 200 100" style="enable-background:new 0 0 200 100;" xml:space="preserve">
<style type="text/css">
	.st0{display:none;}
	.st1{display:inline;fill:#3F0D0C;}
	.st2{display:inline;fill:#D9B061;}
	.st3{display:inline;fill:#370B0A;}
	.st4{fill:#FFFFFF;}
	.st5{fill:#B3B3B3;}
	.st6{fill:#370B0A;}
	.st7{fill:#290808;}
	.st8{fill:#D9B061;}
	.st9{fill:#B59351;}
	.st10{fill:#3F0D0C;}
</style>
<g class="st0">
	<rect class="st3" width="200" height="100"/>
</g>
<g>
	<g>
		<g>
			<g>
				<polygon class="st9" points="91.5,39.25 85.83,44.92 91.5,50.59 91.5,50.59 				"/>
			</g>
			<g>
				<polygon class="st9" points="114.17,44.92 109.71,40.35 100,73.26 100,73.26 				"/>
			</g>
			<g>
				
					<rect x="97.17" y="27.91" transform="matrix(-1.836970e-16 1 -1 -1.836970e-16 142.0843 -57.9155)" class="st8" width="5.67" height="28.34"/>
			</g>
			<g>
				
					<rect x="97.17" y="27.91" transform="matrix(0.7071 0.7071 -0.7071 0.7071 51.0312 -61.7048)" class="st8" width="5.67" height="5.67"/>
			</g>
			<g>
				
					<rect x="107.42" y="28" transform="matrix(-1.836970e-16 1 -1 -1.836970e-16 142.1741 -80.4991)" class="st8" width="7.84" height="5.67"/>
			</g>
			<g>
				
					<rect x="84.74" y="28" transform="matrix(-1.836970e-16 1 -1 -1.836970e-16 119.5007 -57.8257)" class="st8" width="7.84" height="5.67"/>
			</g>
			<g>
				<rect x="90.05" y="30.75" class="st8" width="19.87" height="4.01"/>
			</g>
		</g>
		<g>
			<g>
				<path class="st8" d="M99.97,53.94c-1.85,0-3.36-1.51-3.36-3.36s1.51-3.36,3.36-3.36c1.85,0,3.36,1.51,3.36,3.36
					S101.82,53.94,99.97,53.94z M99.97,47.52c-1.69,0-3.07,1.38-3.07,3.07c0,1.69,1.38,3.07,3.07,3.07c1.69,0,3.07-1.38,3.07-3.07
					C103.04,48.89,101.67,47.52,99.97,47.52z"/>
			</g>
			<g>
				<path class="st8" d="M102.92,49.3C102.92,49.3,102.92,49.3,102.92,49.3c-0.03-0.07-0.06-0.14-0.1-0.21
					c-0.01,0-0.02,0.01-0.02,0.01c0,0.01-0.02,0.02-0.02,0.02s-0.02,0.01-0.03,0.02c0,0.01-0.02,0.01-0.02,0.01l-0.02,0l0.04,0.07
					l0.01,0.03l0.02,0.03c0,0,0-0.01,0.02,0c0.02,0.01,0.06,0,0.06,0l0.01,0c0,0,0.01,0,0.02,0C102.92,49.3,102.88,49.3,102.92,49.3
					L102.92,49.3z"/>
			</g>
			<g>
				<path class="st8" d="M99.06,48.11L99.06,48.11C99.08,48.1,99.06,48.11,99.06,48.11L99.06,48.11z"/>
			</g>
			<g>
				<path class="st8" d="M99.99,51.42c0-0.01-0.12-0.15-0.12-0.15l-0.1-0.02l-0.21-0.06l-0.08-0.04l-0.09,0.04
					c0,0-0.05,0.02-0.09,0.02c-0.04,0-0.09-0.04-0.09-0.05c0-0.01,0-0.03,0.01-0.04c0.01-0.01,0.04-0.06,0.05-0.07
					c0.01-0.01,0.01-0.02,0.01-0.05c0-0.03,0.02-0.08-0.01-0.11c-0.04-0.02-0.25-0.09-0.25-0.09s-0.04-0.07-0.06-0.08
					c-0.01-0.01-0.15-0.06-0.15-0.06s-0.03-0.03-0.04-0.04c-0.01-0.01-0.11-0.05-0.11-0.05l-0.17-0.01c0,0,0.02-0.04-0.03-0.04
					c-0.05,0-0.09,0.04-0.09,0.04s0,0.04-0.02,0.06c-0.02,0.02-0.08-0.04-0.08-0.04s0-0.02-0.02,0c-0.02,0.02-0.06,0.01-0.07,0.04
					c-0.01,0.02-0.04,0.03-0.04,0.03s-0.07-0.06-0.08-0.05c-0.01,0-0.09,0.02-0.09,0.02s0,0.01-0.02,0.01c-0.02,0-0.12-0.1-0.12-0.1
					s0-0.03,0-0.04c0-0.01,0-0.11,0-0.11l-0.03-0.05c0,0-0.05-0.01-0.06,0c-0.01,0.01-0.12-0.03-0.11-0.05
					c0.01-0.02,0.03-0.02,0.04-0.05c0.01-0.04,0.01-0.13,0.01-0.13l0.03-0.04c0,0-0.07-0.03-0.08,0c-0.01,0.03-0.07,0.07-0.07,0.08
					c0,0.01-0.13,0.03-0.17,0.03c0,0,0-0.01-0.01-0.04c-0.03-0.05-0.06-0.17-0.06-0.18c0-0.01-0.05-0.05,0-0.1
					c0.05-0.06,0.05-0.07,0.05-0.09c0.01-0.01,0.08-0.05,0.1-0.06c0.02-0.01,0.04-0.04,0.07-0.04s0.07,0,0.08,0
					c0.01,0,0.02,0.01,0.04,0c0.02-0.01,0.01-0.01,0.05-0.03c0.05-0.02,0.07-0.02,0.1,0c0.03,0.02,0.12,0.01,0.12,0.01
					s0.01-0.05,0.03,0.02c0.02,0.06,0.02,0.05,0.03,0.09c0.01,0.04,0.07,0.07,0.07,0.07s0.01,0.06,0.02-0.02
					c0.01-0.09,0.01-0.09,0.01-0.11c0-0.02,0-0.1,0.01-0.11c0.01-0.01,0.13-0.15,0.13-0.15s0.07-0.07,0.1-0.1
					c0.02-0.03,0.05-0.08,0.05-0.08s0.04-0.08,0.05-0.09c0.01-0.01,0.05-0.02,0.09-0.04c0.04-0.01,0.09-0.02,0.11-0.05
					c0.02-0.03,0.03-0.06,0.06-0.07c0.03-0.01,0.02-0.03,0.07-0.06c0.05-0.03,0.07-0.02,0.12-0.04c0.05-0.02,0.05-0.02,0.05-0.02
					s0.01,0.02,0.02,0.06c0,0.04-0.03,0.04,0,0.04c0.03,0,0.05-0.01,0.09-0.03c0.03-0.02,0.01-0.01,0.03-0.02
					c0.02-0.01,0.02-0.09,0.02-0.09s0.03-0.03-0.01-0.06c-0.04-0.02-0.03-0.03-0.06-0.02c-0.03,0.01-0.09,0.02-0.09,0
					c0-0.02,0.11-0.08,0.11-0.08s0.05,0,0.11,0c0.05,0,0.15-0.01,0.17-0.04c0.02-0.03,0.16-0.07,0.16-0.07s0.02-0.07,0-0.09
					c-0.03-0.02-0.07-0.01-0.09-0.06c-0.02-0.06-0.08-0.17-0.09-0.19c-0.01-0.01-0.08-0.04-0.09-0.04c-0.01,0-0.05,0-0.05,0
					l-0.13-0.06c-0.01,0.01-0.02,0.01-0.04,0.03c-0.08,0.05-0.09,0.04-0.1,0.06c-0.01,0.02-0.05,0.05-0.07,0.09
					c-0.02,0.04-0.02,0.04-0.04,0.07c-0.02,0.04-0.02,0.05-0.06,0.08c-0.04,0.03-0.16,0.14-0.16,0.14s-0.06,0.01-0.06-0.05
					c0-0.06-0.02-0.11-0.02-0.12c0-0.01-0.06-0.05-0.06-0.05s-0.11,0-0.12-0.02c-0.01-0.02-0.02-0.04-0.02-0.07
					c0-0.02-0.01-0.07,0.01-0.1c0.02-0.02,0.02-0.07,0.05-0.07c0.03,0,0.04-0.02,0.09-0.02c0.05-0.01,0.1-0.01,0.13-0.03
					c0.03-0.02,0.04-0.05,0.08-0.05c0.04-0.01,0.05,0,0.1-0.02c0.04-0.01,0.08-0.03,0.1-0.03c0.02,0,0.05-0.02,0.07-0.02
					c0.02,0,0.04-0.04,0.04-0.04L99,47.79c0,0-0.02,0.01-0.1,0.04c-0.08,0.03-0.07,0.11-0.13,0.05c-0.06-0.06-0.12-0.13-0.12-0.13
					c0,0-0.04-0.01-0.06,0.02c-0.02,0.03-0.04,0.04-0.07,0.07c-0.03,0.03-0.02,0.04-0.08,0.04c-0.04,0-0.12-0.01-0.18-0.01
					c-0.69,0.44-1.2,1.13-1.4,1.95c0.01,0.02,0.02,0.04,0.03,0.05c0.01,0.02,0.12,0.16,0.12,0.16s-0.06,0.08-0.01,0.11
					c0.05,0.02,0.04,0.01,0.12,0.06c0.07,0.05,0.13,0.07,0.13,0.07s-0.11-0.02,0.06,0.03c0.17,0.05,0.19,0.06,0.19,0.05
					c0.01-0.01,0.01-0.06,0.03-0.01c0.02,0.05-0.01,0.04,0.06,0.09c0.07,0.04,0.15,0.11,0.17,0.12c0.02,0.01,0.05,0.04,0.05,0.04
					s0.11,0.08,0.12,0.08c0.01,0,0.14,0.04,0.14,0.04s0.07-0.03,0.09,0c0.01,0.04,0.02,0.05,0.01,0.08
					c-0.01,0.02-0.07,0.15-0.07,0.15l-0.05,0.1l-0.06,0.08v0.09c0,0,0,0.01,0.01,0.02c0.01,0.02-0.01,0.12-0.01,0.12l0.06,0.07
					c0,0,0.02,0.06,0.03,0.09c0.01,0.02,0.04,0.09,0.05,0.1c0.01,0.02,0.03,0.04,0.03,0.04s0.04,0.04,0.06,0.08
					c0.01,0.04,0.05,0.05,0.06,0.07c0.01,0.02-0.01,0,0.01,0.02c0.02,0.02,0.01,0.01,0.05,0.03c0.04,0.02-0.03-0.05,0.04,0.02
					c0.07,0.07,0.07,0.07,0.07,0.07s0.02,0,0.05,0.09c0.03,0.09,0.04,0.12,0.04,0.12v0.2c0,0,0.01,0.06,0,0.09
					c-0.01,0.03-0.02,0.15-0.01,0.18c0,0.03,0.01,0.04,0.02,0.09c0.01,0.05,0.02,0.1,0.02,0.15c0,0.05,0,0.06,0,0.1
					c0,0.04-0.03,0.13,0,0.19c0.03,0.06-0.02,0,0.07,0.09c0.09,0.09,0.11,0.07,0.11,0.12c0,0.04-0.01,0.06,0.03,0.14
					c0.01,0.03,0.01,0.05,0,0.06c0.02,0.01,0.04,0.01,0.06,0.02c0,0,0,0,0.01,0c0.13,0,0.14-0.02,0.14-0.02s0.01-0.04,0.02-0.05
					c0.01-0.01,0.04-0.08,0.04-0.1c0-0.02-0.02-0.11-0.02-0.11l-0.04-0.07c0,0-0.02-0.04,0-0.08c0.02-0.04,0.06-0.12,0.06-0.12
					s-0.02-0.04,0-0.05c0.02-0.01,0.05-0.02,0.06-0.03c0.01-0.01,0.04-0.05,0.04-0.06c0-0.01,0.02-0.06,0-0.09
					c-0.02-0.03-0.04-0.04-0.02-0.05c0.02-0.01,0.09-0.06,0.09-0.06s0.02,0.01,0.04,0c0.02-0.01,0.06-0.07,0.08-0.1
					c0.02-0.02,0.04-0.06,0.05-0.07c0.01-0.01,0.03-0.08,0.04-0.12c0.01-0.05,0.01-0.06,0.03-0.06c0.02-0.01,0.03-0.02,0.05-0.03
					c0.02-0.01,0.02-0.01,0.06-0.04c0.04-0.04,0-0.04,0.06-0.05c0.06-0.01,0.08-0.02,0.09-0.02c0.01,0,0.04-0.02,0.06-0.04
					c0.02-0.02,0.03-0.05,0.05-0.07c0.03-0.02,0.04-0.06,0.04-0.07c0-0.01-0.02-0.03,0-0.07c0.02-0.04,0-0.02,0.05-0.1
					c0.05-0.09,0.07-0.17,0.09-0.18c0.02-0.01,0.05-0.17,0.05-0.17S99.98,51.43,99.99,51.42L99.99,51.42z"/>
			</g>
			<g>
				<path class="st8" d="M98.39,47.83c0.02-0.02,0.04-0.05,0.04-0.05s0.01,0,0.01-0.01c-0.03,0.02-0.06,0.03-0.08,0.05
					C98.36,47.82,98.37,47.84,98.39,47.83L98.39,47.83z"/>
			</g>
			<g>
				<path class="st8" d="M98.59,47.69c0,0-0.01,0.02,0,0.02c0.01,0,0-0.01,0.01,0c0.02,0.01,0.03,0,0.03,0l0.02,0l0.01-0.02h0.02
					l0.02-0.02v-0.02v-0.02c-0.01,0-0.01,0-0.01,0c-0.04,0.02-0.08,0.03-0.12,0.05H98.59L98.59,47.69z"/>
			</g>
			<g>
				<path class="st8" d="M98.87,47.63h-0.02h-0.02H98.8h-0.02l-0.02,0.04l0.01,0.02c0,0,0,0,0.01,0c0.01,0,0.02,0,0.03-0.01
					c0.01-0.01,0.01-0.01,0.01-0.01s0.03-0.01,0.04-0.02c0.01-0.01,0.02,0,0.02,0s0.01,0,0.02,0c0.01,0,0-0.02,0-0.02h-0.01H98.87
					L98.87,47.63z"/>
			</g>
			<g>
				<path class="st8" d="M98.98,47.59c0.02,0,0.03,0,0.03,0s0.01,0.01,0.03,0.01c0.02,0,0.02,0,0.02,0s0.01,0,0.02,0
					c0.01,0,0.02,0,0.02,0s0.02-0.01,0.03,0c0.01,0.01,0.02-0.01,0.03,0c0.01,0.01,0.02-0.01,0.02,0c0.01,0.01,0.03,0.01,0.03,0.01
					h0.01h0.02c0,0,0.02,0,0.02,0c0.01,0,0.01,0.01,0.02,0c0.01-0.01,0.02-0.02,0.02-0.02s0.01-0.01-0.01-0.01c-0.02,0,0,0-0.03,0
					c-0.03,0-0.05,0-0.05,0s-0.01,0-0.02,0c-0.01,0-0.01,0-0.03,0c-0.02,0-0.05,0-0.05,0h-0.02l-0.02-0.01c0,0,0,0-0.01,0
					c-0.01,0-0.01-0.01-0.01-0.01l0-0.01l-0.01-0.01c-0.01,0-0.03-0.01-0.04,0c-0.01,0.01-0.01,0.02-0.02,0.02
					c-0.01,0.01-0.01,0.01-0.01,0.01C98.98,47.57,98.99,47.57,98.98,47.59C98.98,47.59,98.97,47.58,98.98,47.59L98.98,47.59z"/>
			</g>
			<g>
				<path class="st8" d="M99.56,47.95c0-0.01,0-0.01,0.01-0.02c0-0.01,0.01-0.01-0.01-0.02c-0.01-0.01-0.02-0.01-0.03-0.02
					c-0.01-0.01-0.03-0.04-0.03-0.04s0-0.01,0-0.02c0-0.01,0-0.02,0-0.03c0-0.01,0.01-0.02-0.01-0.02
					c-0.02-0.01-0.05-0.02-0.05-0.02l-0.03-0.03c0,0-0.01-0.01-0.01-0.01c-0.01-0.01,0-0.02-0.02-0.02c-0.02,0-0.01-0.01-0.03,0
					c-0.02,0.01-0.05,0.01-0.05,0.01l-0.02-0.01c0,0-0.01-0.01-0.03-0.02c-0.01-0.01-0.02-0.03-0.03-0.03
					c-0.01,0-0.03,0.01-0.03,0.01c-0.01,0-0.01,0.01-0.03,0.01c-0.02,0-0.04,0-0.04,0l-0.02-0.01l-0.01-0.02l-0.03-0.01h-0.01h-0.01
					c0,0-0.01,0-0.02,0.01c-0.01,0.01-0.02,0.02-0.02,0.02s-0.01,0-0.01,0.01c-0.01,0-0.01,0.01-0.02,0.01
					c-0.01,0.01-0.01,0-0.01,0.01c0,0.01-0.01,0.02-0.01,0.02c0,0.01-0.01,0-0.01,0.01c0,0.01,0,0.01,0,0.02
					c0,0.01,0.01,0.01,0.01,0.01c0.01,0.01,0.01,0.01,0.01,0.01h0.01c0,0,0.01,0,0.02,0c0.01,0,0.02,0,0.03,0c0,0,0.02,0,0.02,0
					h0.01c0,0-0.02-0.01,0.01,0c0.03,0.01,0.04,0.01,0.04,0.01s-0.01,0,0.01,0c0.02,0,0.03-0.01,0.03-0.01s0.01-0.01,0.02-0.01
					c0,0,0.02,0,0.02,0c0.01,0,0.01,0,0.02,0c0.01,0,0.02,0,0.02,0.01c0.01,0,0.02,0.01,0.02,0.02c0.01,0.01,0.01,0.01,0.02,0.01
					c0.01,0.01,0,0,0.01,0.01c0.01,0.01,0.01,0.01,0.02,0.02c0.01,0.01,0.01,0.01,0.02,0.02c0.01,0.01,0.02,0.01,0.03,0.02
					c0.01,0.01,0.01,0.01,0.01,0.01s0.02,0,0.03,0.01c0.01,0.01,0.01-0.01,0.01,0.01c0,0.02,0.01,0,0,0.02
					c0,0.02,0.01,0.01-0.01,0.02c-0.02,0.01-0.02,0-0.04,0.01c-0.03,0-0.08-0.01-0.09,0c-0.01,0.01-0.02,0.01-0.03,0.02
					c-0.01,0.02-0.02,0.01-0.01,0.03c0.01,0.02,0,0.01,0.01,0.02c0.01,0.01,0.01,0.01,0.02,0.03c0.01,0.02-0.01,0.01,0.02,0.03
					c0.02,0.02,0.05,0.03,0.06,0.04c0.01,0.01,0.06,0.01,0.06,0.01l0.01-0.01c0,0,0.02,0,0-0.01c-0.02-0.01-0.03-0.03-0.03-0.03
					l0-0.01c0,0,0-0.01,0.01-0.01c0.01,0,0.04,0.01,0.04,0.01s0,0,0.01,0c0,0,0,0,0.01,0c0.01,0,0.02,0,0.02-0.01
					c0,0,0.01-0.01,0.01-0.02c0-0.01-0.01-0.02-0.01-0.03c0,0,0-0.02,0-0.02c0,0,0-0.02,0-0.03c0,0,0-0.01,0.01-0.01
					c0.02-0.01,0.03-0.01,0.03-0.01s0.01,0,0.02,0.01c0.01,0.01,0.03,0.01,0.03,0.01s0,0,0.01,0c0.01,0,0.01,0,0.02,0
					C99.55,47.96,99.55,47.96,99.56,47.95L99.56,47.95z"/>
			</g>
			<g>
				<path class="st8" d="M99.37,47.45c-0.01,0.01-0.02,0.02-0.02,0.02s-0.01,0.01-0.01,0c-0.01-0.01-0.02-0.01-0.02-0.01l0.01,0.03
					c0,0-0.01-0.01-0.01,0c0,0.01-0.01,0.01-0.01,0.01c-0.01,0-0.01-0.01-0.03,0c-0.02,0.01-0.04,0.01-0.04,0.01c0,0-0.01,0-0.02,0
					c0,0,0,0-0.01,0c-0.01-0.01-0.02,0-0.02,0c0,0,0.04,0.02,0.05,0.01c0.01,0,0.03,0,0.03,0l0.02-0.01c0,0,0.01-0.01,0.01,0
					c0.01,0.01,0.03,0.01,0.03,0.01s0.01,0,0.02,0.01c0.01,0.01,0.03,0.01,0.03,0.01s0.01-0.01,0.02-0.01c0.01,0,0.02,0,0.02-0.01
					c0-0.01,0.01-0.02,0.02-0.02c0.01,0,0.02-0.01,0.03-0.01c0.01,0,0.01-0.01,0.03-0.01c0.02-0.01,0.03-0.01,0.03-0.01
					c0.01,0,0.02-0.01,0.03-0.01c0.01,0,0.03-0.01,0.04-0.01c0.01,0,0.03-0.02,0.04-0.02c0.01,0,0.04-0.01,0.04-0.01
					c0.01,0,0.02-0.01,0.03-0.01c0.01,0-0.01-0.01,0.02-0.01c0.03,0,0.09-0.02,0.09-0.02s0.02-0.01,0.02-0.01c0,0,0.01,0,0.01-0.01
					c-0.1,0-0.2,0.01-0.3,0.03c-0.01,0.02-0.02,0.03-0.02,0.02c-0.01,0-0.05,0.01-0.06,0.01c-0.01,0-0.01,0-0.01,0l-0.01,0
					c0,0,0-0.01-0.01-0.01c-0.01,0-0.01,0-0.01,0s0,0,0,0c-0.02,0-0.03,0.01-0.05,0.01C99.37,47.44,99.38,47.44,99.37,47.45
					L99.37,47.45z"/>
			</g>
			<g>
				<path class="st8" d="M98.21,50.03c-0.01-0.02-0.01-0.01-0.03-0.02c-0.02-0.02-0.03-0.01-0.04-0.02c-0.01-0.01-0.05,0-0.05,0
					s-0.03-0.01-0.03-0.01c-0.01,0-0.07-0.01-0.08-0.01c-0.01,0-0.05,0.03-0.05,0.03l-0.02,0.01V50l0.03,0.01c0,0,0,0,0.02,0
					c0.02,0,0.02,0,0.02,0l0.02-0.01l0.03,0c0,0,0.22,0.11,0.23,0.1c0.01-0.01,0.03,0,0.03,0v-0.02c0,0,0,0-0.01,0
					c-0.01,0-0.02-0.01-0.04-0.03C98.21,50.02,98.23,50.05,98.21,50.03L98.21,50.03z"/>
			</g>
			<g>
				<path class="st8" d="M98.36,50.17l-0.02,0l-0.05,0.01c0,0,0,0,0.02,0c0.02,0,0.03,0,0.05,0c0.02,0,0.02-0.01,0.02,0
					c0.01,0.01,0.03,0,0.05,0c0.01,0,0.02,0,0.02,0c0,0,0.03,0.01,0.05,0c0.01-0.01,0,0,0.02-0.01c0.02-0.01,0.02,0,0.05-0.02
					c0.03-0.01,0,0,0-0.02c0-0.02,0,0-0.02-0.01c-0.02-0.01-0.03-0.01-0.04-0.01c-0.01-0.01-0.02,0-0.05-0.01
					c-0.02-0.01-0.01,0-0.01,0s-0.02,0-0.03,0c-0.01,0-0.03,0-0.03,0v0.02l0.01,0.02l-0.01,0.02L98.36,50.17L98.36,50.17z"/>
			</g>
			<g>
				<path class="st8" d="M99.76,47.45c-0.02-0.01-0.06,0.04-0.06,0.04v0.04h0.03c0,0,0.14-0.02,0.17-0.01c0.03,0.01,0,0,0.01,0.03
					c0.01,0.03,0.02,0.06,0.02,0.06l0.08,0.03l0.05,0.04c0,0,0.01,0,0.01,0.01c0,0.02,0.01,0.01,0,0.03
					c-0.01,0.02-0.02,0.03-0.02,0.03v0.02c0,0,0.02-0.01,0.01,0.02c-0.01,0.03-0.02,0.03-0.03,0.04c-0.01,0.01-0.02,0.01-0.02,0.02
					c0,0.01-0.02,0.04-0.02,0.04s-0.03,0.01-0.02,0.02c0.01,0.01,0,0.04,0,0.04s-0.02,0.02-0.04,0.02
					c-0.02,0.01-0.03,0.06-0.03,0.09c-0.01,0.02,0.02,0.08,0.02,0.08s0.02,0.03,0.06,0.04c0.03,0.01,0.17,0,0.17-0.04
					c0.01-0.04,0.08-0.04,0.08-0.04s0,0,0.04-0.04c0.04-0.04,0.03-0.02,0.06-0.07c0.03-0.05,0.03,0,0.03,0s0.1-0.01,0.15-0.04
					c0.06-0.03,0.02,0,0.02,0s0.05-0.03,0.08-0.06c0,0,0.12-0.03,0.17-0.05c0.04-0.02,0.03,0.01,0.04,0c0.02-0.01,0.04,0,0.04,0
					s0.02-0.01,0.05-0.03c0.03-0.02-0.02-0.03-0.02-0.03s-0.02-0.03-0.01-0.04c0.01-0.01,0.03-0.03,0.03-0.03v-0.03l0.03-0.02
					c0,0,0.02-0.02,0.11-0.06c0.07-0.02,0.06-0.02,0.07-0.03c-0.34-0.13-0.71-0.2-1.1-0.21c-0.03,0.01-0.02,0.06-0.03,0.07
					c-0.01,0.02-0.09,0.02-0.09,0.02S99.78,47.46,99.76,47.45L99.76,47.45z"/>
			</g>
			<g>
				<path class="st8" d="M101.32,48.44c0.02-0.02,0,0,0-0.02h-0.02c0,0-0.01,0-0.03,0c-0.01,0-0.02,0-0.03,0
					c-0.01,0-0.02,0-0.04-0.02c-0.01-0.01-0.03,0-0.03,0l-0.06,0.04h-0.05l-0.02,0.04h0.02l0.03,0l0.03,0.01h0.02h0.02
					c0,0,0.03,0,0.04,0c0.01,0,0.02,0,0.02,0l0.01-0.02h0.02C101.27,48.46,101.3,48.46,101.32,48.44L101.32,48.44z"/>
			</g>
			<g>
				<path class="st8" d="M101.47,48.61c0,0.01-0.05,0.04-0.05,0.04h0.05l0.03-0.01c0.02,0,0.07-0.01,0.07-0.01h0.02h0.03l0.02-0.01
					v-0.02v-0.02l0.02-0.02l-0.02-0.02l-0.05-0.05l-0.01-0.02l-0.02-0.04l-0.01-0.03h-0.03c0,0-0.01-0.01-0.01-0.02
					c0-0.01,0-0.02,0-0.02v-0.03l-0.02-0.01c0,0-0.01-0.04-0.02,0c-0.01,0.04,0,0.01-0.01,0.04c0,0.02,0,0.01,0,0.02
					c0,0.01,0,0.01,0,0.01v0.02l0.04,0.02l0.01,0.02v0.01v0.03v0.02h-0.02v0.01h-0.02v0.02v0.01v0.03h0.02l0.02,0.01l-0.02,0.03
					C101.5,48.61,101.47,48.6,101.47,48.61L101.47,48.61z"/>
			</g>
			<g>
				<path class="st8" d="M101.92,48.06c-0.02,0.01-0.02-0.01-0.03,0.02c-0.01,0.02-0.05,0.02-0.04,0.05c0.01,0.03,0,0,0.01,0.04
					c0.01,0.04,0,0.04,0.01,0.06c0.01,0.02,0.01,0.03,0.02,0.04c0.01,0.01,0.03,0.02,0.03,0.02s0.01,0.01,0.05,0
					c0.03-0.01,0.07-0.02,0.09-0.02c0.02,0,0.02,0,0.03,0.02c0.01,0.02,0.01,0.01,0.02,0.05c0.01,0.03,0,0.05,0.02,0.06
					c0.02,0.02,0.03,0.03,0.05,0.02c0.02-0.01,0.04-0.02,0.05-0.03c0.01,0,0.03-0.03,0.04-0.04c-0.1-0.1-0.2-0.19-0.3-0.27
					C101.94,48.05,101.93,48.05,101.92,48.06L101.92,48.06z"/>
			</g>
			<g>
				<path class="st8" d="M103.02,49.56C103,49.57,103,49.57,103,49.57s-0.02,0-0.03,0c-0.01,0-0.07,0.01-0.08,0
					c-0.01-0.01-0.11-0.05-0.11-0.05c-0.02,0.01-0.09,0.01-0.09,0.01c-0.02,0-0.06-0.02-0.06-0.02l-0.05-0.03l-0.09-0.01
					c0,0-0.01,0.02-0.01,0.04c0,0.02,0.02,0.04,0,0.06c-0.02,0.02-0.04,0.03-0.05,0.03c-0.01,0-0.02,0-0.03,0
					c-0.01,0-0.09-0.02-0.11-0.03c-0.02-0.01-0.06-0.03-0.06-0.03v-0.03l-0.06-0.03c0,0-0.02-0.01-0.04-0.01
					c-0.02-0.01-0.06-0.04-0.06-0.04l-0.01-0.06v-0.03l-0.02-0.04c0,0,0-0.04-0.02-0.04c-0.02,0-0.09,0.02-0.09,0.02l-0.04,0.01
					h-0.05c0,0,0.03-0.01-0.03-0.01c-0.05,0-0.16,0-0.16,0c-0.04,0.04-0.12,0.09-0.12,0.09s-0.1-0.01-0.1-0.01
					c0-0.01-0.07-0.02-0.07-0.02s-0.01,0.03-0.03,0.05c-0.02,0.02-0.02,0.02-0.02,0.02l-0.06,0.06l-0.05,0.04
					c0,0.03,0.02,0.07,0,0.08c-0.02,0.01-0.05,0.05-0.05,0.05h-0.03c0,0-0.02,0.03-0.03,0.04c-0.01,0.02-0.03,0.03-0.03,0.03
					s-0.02,0.01-0.03,0.03c-0.01,0.02-0.04,0.04-0.04,0.04l-0.05,0.09c0,0,0.03-0.01,0,0.03c-0.03,0.04-0.05,0.05-0.06,0.08
					c-0.01,0.03-0.01-0.02-0.01,0.03c-0.01,0.05-0.02,0.06,0,0.08c0.02,0.02,0.02,0.02,0.02,0.05c0,0.03,0.01,0.03-0.01,0.06
					c-0.01,0.03-0.01,0.01-0.03,0.06c-0.02,0.05-0.01,0.1,0,0.11c0.01,0.02-0.04-0.04,0.01,0.02c0.04,0.05,0.06,0.07,0.08,0.09
					c0.02,0.03-0.01-0.07,0.02,0.03c0.03,0.09,0.02,0.07,0.05,0.13c0.03,0.06,0.01,0.06,0.04,0.09c0.03,0.04,0.02,0.03,0.06,0.06
					c0.04,0.03-0.06,0.01,0.04,0.03c0.1,0.02,0.07,0.03,0.14,0c0.06-0.03,0.02-0.03,0.06-0.03c0.05-0.01,0.1-0.01,0.1-0.01
					s0.02,0.01,0.03,0.01c0.02,0,0.1-0.03,0.1-0.03s-0.02-0.02,0.03-0.03c0.04-0.02,0.01-0.01,0.04-0.02
					c0.03-0.01,0.03-0.01,0.03-0.01s0.02-0.01,0.05,0.01c0.03,0.02,0.06,0.03,0.08,0.05c0.02,0.02-0.02-0.02,0.02,0.02
					c0.04,0.04,0.09,0.05,0.09,0.05s0.01-0.02,0.03,0c0.02,0.02,0.02,0.02,0.03,0.05c0.01,0.03,0.01-0.02,0.01,0.03
					c0.01,0.05-0.03,0.02-0.02,0.08c0.01,0.06-0.01,0.01,0.01,0.06c0.02,0.05-0.01,0.01,0.03,0.08c0.04,0.07-0.02,0.04,0.04,0.1
					c0,0,0.06,0.06,0.06,0.08c0,0.02,0,0,0,0.04c0.01,0.04,0.01,0.05,0.02,0.07c0.01,0.02,0.01,0.05,0.02,0.07
					c0.01,0.02,0,0.04,0.01,0.07c0.01,0.03,0,0.05,0,0.07c-0.01,0.02-0.01,0.02-0.02,0.05c-0.01,0.03-0.03,0.01-0.04,0.07
					c-0.01,0.06-0.02,0.06-0.01,0.1c0.01,0.04,0.01,0.06,0.02,0.1c0.01,0.03,0.02,0.04,0.04,0.08c0.02,0.04,0.04,0.08,0.05,0.11
					c0.01,0.03,0,0.01,0.02,0.06c0.01,0.05,0.01,0.02,0.02,0.09c0.01,0.07,0.01,0.09,0.04,0.14c0.02,0.06,0.05,0.08,0.06,0.09
					c0.01,0.01,0.01-0.02,0.03,0.04c0.02,0.06-0.01,0.03,0.02,0.09c0.49-0.56,0.78-1.3,0.78-2.1
					C103.19,50.23,103.13,49.88,103.02,49.56L103.02,49.56z"/>
			</g>
			<g>
				<path class="st8" d="M102.38,48.46C102.38,48.46,102.38,48.47,102.38,48.46c-0.03,0-0.05,0-0.05,0c-0.01,0-0.06,0-0.06,0
					c-0.01,0-0.05,0.01-0.05,0.01c0,0.01-0.04,0.01-0.04,0.01c-0.01,0-0.05-0.02-0.05-0.02h-0.05c0,0-0.03,0.01-0.04,0
					c-0.01-0.01-0.02,0-0.03,0c-0.01,0-0.03,0.02-0.04,0.02c0,0.01,0-0.01-0.02,0c-0.02,0.01-0.02-0.01-0.03,0
					c-0.02,0.01-0.03,0.01-0.04,0.02c-0.01,0.01-0.02,0.02-0.03,0.02c0,0.01,0.01,0-0.02,0.02c-0.02,0.02-0.04,0.03-0.05,0.03
					c-0.01,0.01-0.01,0.01-0.02,0.01c-0.02,0.01-0.03,0.02-0.05,0.03c-0.02,0.01-0.04,0.02-0.06,0.03
					c-0.02,0.01-0.03,0.02-0.05,0.03c-0.02,0.01-0.03,0.02-0.06,0.02c-0.02,0-0.04,0.01-0.05,0.01c-0.01,0-0.04,0-0.04,0.01
					c0,0.01,0.01,0.03,0.02,0.03c0.01,0.01,0.04,0.01,0.05,0.02c0.01,0.01-0.01-0.01,0.01,0.01c0.02,0.02,0.01,0.03,0.01,0.04
					c0.01,0.01-0.01,0,0,0.03c0.01,0.03,0,0.04,0,0.06c0,0,0,0,0,0.01c0,0,0,0,0,0c0,0,0,0,0,0.01c0,0.03,0.02,0.01,0,0.03
					c-0.02,0.01-0.02,0.01-0.03,0.01c-0.01,0-0.04-0.01-0.04-0.01s-0.02-0.01-0.05,0c-0.02,0.01-0.05-0.01-0.07,0
					c-0.02,0,0,0-0.02,0c-0.02,0-0.03,0-0.04,0.01c-0.01,0.01-0.02,0.02-0.02,0.02v0.03c0,0,0-0.02,0.02,0
					c0.02,0.02,0.07,0.02,0.07,0.02l0.01,0.02c0,0,0,0.01,0,0.02c0,0.01-0.01,0.03-0.01,0.03s0.01,0.01,0,0.03
					c-0.01,0.02,0,0.05,0,0.05s-0.01,0.02-0.03,0.02c-0.02,0.01-0.02,0.02-0.02,0.03c0,0.01,0.02,0.05,0.02,0.05h0.02h0.05h0.03
					c0,0,0.03,0.01,0.05,0c0.02-0.01,0.08-0.04,0.08-0.04s0.02-0.02,0.02-0.04c0-0.01,0.02-0.05,0.02-0.05l0.01-0.04l0.05-0.04
					l0.02-0.02l0.02-0.04v-0.01l0.06-0.05h0.03c0,0,0.01-0.02,0.03,0c0.02,0.02,0.02,0.02,0.02,0.02l0.07,0l0.03-0.02l0.04-0.02
					l0.03,0.02l0.03,0.03c0,0,0.01,0,0.02,0.01c0.01,0.01,0.03,0.01,0.05,0.02c0.02,0.01,0.04,0.03,0.04,0.03l0.06,0.04
					c0,0,0.01,0,0.02,0.01c0.01,0.01,0.03,0.02,0.03,0.02v0.02c0,0,0.01,0.01,0.02,0.02c0.01,0.01-0.01,0.01,0,0.02
					c0.01,0.01,0.01,0.01,0.01,0.01s-0.02,0.04,0,0.04c0.02,0,0.02,0,0.02,0v-0.04v-0.04v-0.04c0,0,0.02-0.01,0.03,0
					c0.01,0.01,0.01,0.01,0.01,0.01l0.03,0c0,0,0.01-0.02-0.02-0.02c-0.02,0-0.09-0.04-0.09-0.04l-0.05-0.04l-0.02-0.02l-0.03-0.05
					l-0.02-0.04h-0.02l0.01-0.05c0,0,0.03,0,0.04,0c0.01,0,0.03,0.03,0.03,0.03s0.05,0.02,0.07,0.04c0.02,0.01,0.06,0.02,0.06,0.02
					l0.05,0.02c0,0-0.03-0.01,0,0.01c0.03,0.02,0.03,0.02,0.03,0.02s0.01,0,0.03,0.03c0.01,0.04-0.01,0.05,0,0.06
					c0.01,0.01,0.01,0.01,0.01,0.01s0,0.04,0.02,0.04c0.02,0,0.05,0,0.05,0s0.02,0.04,0.03,0.05c0,0.01,0.03,0.01,0,0.01
					c-0.03,0-0.02-0.03-0.03,0c-0.01,0.03,0,0.07,0,0.07h0.02c0,0,0.02,0.01,0.04,0c0.01-0.01,0.03-0.04,0.03-0.04s0.01-0.02,0-0.04
					c-0.01-0.01-0.03-0.04-0.03-0.04s-0.01-0.01-0.01-0.03c0.01-0.02,0.03-0.07,0.06-0.06c0.02,0.01,0.06-0.01,0.07,0
					c0.01,0.01,0.03,0.01,0.04,0.02c0.01,0,0.05-0.02,0.05-0.02s0.01-0.02,0-0.03c-0.01-0.01-0.02-0.03-0.02-0.04
					c0-0.01,0-0.04,0.01-0.05C102.64,48.79,102.52,48.62,102.38,48.46L102.38,48.46z"/>
			</g>
			<g>
				<path class="st8" d="M101.94,49.04c-0.01-0.02-0.04-0.02-0.05-0.03L101.87,49c0,0.01-0.02,0.04-0.03,0.06
					c-0.01,0.02-0.01,0.04-0.01,0.06c0,0.03-0.02,0.14,0.03,0.1c0.04-0.03,0-0.08,0.03-0.11C101.92,49.08,101.94,49.07,101.94,49.04
					L101.94,49.04z"/>
			</g>
			<g>
				<path class="st8" d="M99.47,48.69c-0.01-0.02-0.01-0.05-0.01-0.07c-0.01,0-0.01,0-0.01,0.01v0c-0.03,0.03-0.04,0.06-0.08,0.08
					c-0.02,0.01-0.08,0.04-0.04,0.05c0.03,0.01,0.05-0.01,0.07-0.01c0.02,0,0.03,0.01,0.05,0.02c0.04,0.01,0.08-0.02,0.07-0.06
					C99.5,48.72,99.47,48.71,99.47,48.69L99.47,48.69z"/>
			</g>
		</g>
	</g>
	<g>
		<g>
			<path class="st8" d="M100,89.67c-12.34,0-22.37-10.04-22.37-22.37V32.7c0-12.34,10.04-22.37,22.37-22.37
				c12.34,0,22.37,10.04,22.37,22.37V67.3C122.37,79.64,112.34,89.67,100,89.67z M100,12.81c-10.96,0-19.88,8.92-19.88,19.88V67.3
				c0,10.96,8.92,19.88,19.88,19.88s19.88-8.92,19.88-19.88V32.7C119.88,21.73,110.96,12.81,100,12.81z"/>
		</g>
	</g>
	<g>
		<circle class="st8" cx="99.42" cy="79.63" r="1.64"/>
	</g>
</g>
</svg>
